<?xml version="1.0" encoding="utf-8"?>
<!-- Generator: Adobe Illustrator 19.1.0, SVG Export Plug-In . SVG Version: 6.00 Build 0)  -->
<svg version="1.1" id="Layer_1" xmlns="http://www.w3.org/2000/svg" xmlns:xlink="http://www.w3.org/1999/xlink" x="0px" y="0px"
	 viewBox="-295 387 20 20" style="enable-background:new -295 387 20 20;" xml:space="preserve">
<style type="text/css">
	.st0{fill:#FFFFFF;}
</style>
<path class="st0" d="M-286,400.7h-5c-1.7,0-3-1.3-3-3c0-1.7,1.3-3,3-3c0.8,0,1.6,0.3,2.1,0.9c0-0.1,0.1-0.2,0.2-0.3
	c0.3-0.4,0.7-0.6,1.2-0.6c0.8,0,1.5,0.7,1.5,1.5c0,0.2,0,0.3-0.1,0.5c0,0,0.1,0,0.1,0c1.1,0,2,0.9,2,2
	C-284,399.8-284.9,400.7-286,400.7L-286,400.7z M-291,395.2c-1.4,0-2.5,1.1-2.5,2.5c0,1.4,1.1,2.5,2.5,2.5h5c0.8,0,1.5-0.7,1.5-1.5
	s-0.7-1.5-1.5-1.5c-0.2,0-0.3,0-0.5,0.1c-0.1,0-0.2,0-0.3-0.1c-0.1-0.1-0.1-0.2,0-0.3c0.2-0.2,0.3-0.4,0.3-0.7c0-0.6-0.4-1-1-1
	c-0.3,0-0.6,0.1-0.8,0.4c-0.1,0.2-0.2,0.3-0.2,0.5c0,0.1-0.1,0.2-0.2,0.2s-0.2,0-0.3-0.1c-0.1-0.1-0.1-0.2-0.2-0.2
	C-289.6,395.5-290.2,395.2-291,395.2L-291,395.2z"/>
<path class="st0" d="M-280,399.2c-0.7,0-1.3-0.6-1.3-1.3c0-0.7,0.6-1.3,1.3-1.3c0.7,0,1.3,0.6,1.3,1.3
	C-278.7,398.6-279.3,399.2-280,399.2z M-280,397c-0.5,0-0.9,0.4-0.9,0.9s0.4,0.9,0.9,0.9s0.9-0.4,0.9-0.9S-279.5,397-280,397z"/>
<path class="st0" d="M-277.4,393.6l-0.1-0.3c-0.1-0.3-0.4-0.6-0.7-0.6h-3.5c-0.3,0-0.7,0.3-0.7,0.6l-0.1,0.3
	c-0.3,0.1-0.5,0.3-0.5,0.6v0.4c0,0.3,0.2,0.5,0.4,0.6l0.4,5.4c0,0.3,0.3,0.6,0.7,0.6h3c0.3,0,0.7-0.3,0.7-0.6l0.4-5.4
	c0.3-0.1,0.4-0.3,0.4-0.6v-0.4C-277,393.9-277.2,393.7-277.4,393.6L-277.4,393.6z M-281.7,393.1h3.5c0.1,0,0.3,0.1,0.3,0.3l0,0.2
	h-4.2l0-0.2C-282,393.2-281.8,393.1-281.7,393.1L-281.7,393.1z M-277.9,395.7h-4.2l0-0.4h4.3L-277.9,395.7L-277.9,395.7z
	 M-278.1,399.6h-3.7l-0.2-3.5h4.2L-278.1,399.6L-278.1,399.6z M-278.5,400.9h-3c-0.1,0-0.2-0.1-0.2-0.2l0-0.6h3.6l0,0.6
	C-278.2,400.8-278.3,400.9-278.5,400.9L-278.5,400.9z M-277.4,394.6c0,0.1-0.1,0.2-0.2,0.2h-4.7c-0.1,0-0.2-0.1-0.2-0.2v-0.4
	c0-0.1,0.1-0.2,0.2-0.2c0,0,0,0,0,0c0,0,0,0,0,0h4.7c0.1,0,0.2,0.1,0.2,0.2L-277.4,394.6L-277.4,394.6z"/>
</svg>
