<?xml version="1.0" encoding="utf-8"?>
<!-- Generator: Adobe Illustrator 16.0.0, SVG Export Plug-In . SVG Version: 6.00 Build 0)  -->
<!DOCTYPE svg PUBLIC "-//W3C//DTD SVG 1.1//EN" "http://www.w3.org/Graphics/SVG/1.1/DTD/svg11.dtd">
<svg version="1.1" id="Layer_1" xmlns="http://www.w3.org/2000/svg" xmlns:xlink="http://www.w3.org/1999/xlink" x="0px" y="0px"
	 width="20px" height="20px" viewBox="0 0 20 20" enable-background="new 0 0 20 20" xml:space="preserve">
<path fill="#FFFFFF" d="M3.742,15c0.255-0.309,0.477-0.645,0.659-1.001C4.798,13.221,5,12.38,5,11.5v-3C5,6.019,7.019,4,9.5,4
	C11.981,4,14,6.019,14,8.5v3c0,0.88,0.202,1.721,0.599,2.499c0.183,0.356,0.404,0.692,0.659,1.001H3.742z M11,16.5
	c0,0.827-0.673,1.5-1.5,1.5S8,17.327,8,16.5c0-0.171,0.03-0.34,0.086-0.5h2.828C10.97,16.16,11,16.329,11,16.5z M9,2.5
	C9,2.224,9.224,2,9.5,2S10,2.224,10,2.5v0.523C9.835,3.008,9.669,3,9.5,3S9.165,3.008,9,3.023V2.5z M16.8,15.101
	C15.656,14.241,15,12.929,15,11.5v-3c0-2.513-1.694-4.638-4-5.292V2.5C11,1.673,10.327,1,9.5,1S8,1.673,8,2.5v0.708
	C5.694,3.862,4,5.987,4,8.5v3c0,1.429-0.656,2.741-1.8,3.601c-0.172,0.13-0.242,0.354-0.174,0.559C2.094,15.863,2.285,16,2.5,16
	h4.551C7.017,16.164,7,16.332,7,16.5C7,17.878,8.122,19,9.5,19s2.5-1.122,2.5-2.5c0-0.168-0.017-0.336-0.05-0.5h4.55
	c0.215,0,0.406-0.137,0.474-0.341C17.042,15.455,16.972,15.23,16.8,15.101z"/>
</svg>
