<?xml version="1.0" encoding="utf-8"?>
<!-- Generator: Adobe Illustrator 19.1.0, SVG Export Plug-In . SVG Version: 6.00 Build 0)  -->
<svg version="1.1" id="Layer_1" xmlns="http://www.w3.org/2000/svg" xmlns:xlink="http://www.w3.org/1999/xlink" x="0px" y="0px"
	 viewBox="-295 387 20 20" style="enable-background:new -295 387 20 20;" xml:space="preserve">
<style type="text/css">
	.st0{fill:#FFFFFF;}
</style>
<path class="st0" d="M-278.2,402.1c-1.1-0.9-1.8-2.2-1.8-3.6v-3c0-2.5-1.7-4.6-4-5.3v-0.7c0-0.8-0.7-1.5-1.5-1.5s-1.5,0.7-1.5,1.5
	v0.7c-2.3,0.7-4,2.8-4,5.3v3c0,1.4-0.7,2.7-1.8,3.6c-0.2,0.1-0.2,0.4-0.2,0.6s0.3,0.3,0.5,0.3h4.5c0,0.2-0.1,0.3-0.1,0.5
	c0,1.4,1.1,2.5,2.5,2.5s2.5-1.1,2.5-2.5c0-0.2,0-0.3,0-0.5h4.5c0.2,0,0.4-0.1,0.5-0.3C-278,402.5-278,402.2-278.2,402.1
	L-278.2,402.1z M-286,389.5c0-0.3,0.2-0.5,0.5-0.5s0.5,0.2,0.5,0.5v0.5c-0.2,0-0.3,0-0.5,0s-0.3,0-0.5,0V389.5z M-284,403.5
	c0,0.8-0.7,1.5-1.5,1.5s-1.5-0.7-1.5-1.5c0-0.2,0-0.3,0.1-0.5h2.8C-284,403.2-284,403.3-284,403.5z M-291.3,402
	c0.3-0.3,0.5-0.6,0.7-1c0.4-0.8,0.6-1.6,0.6-2.5v-3c0-2.5,2-4.5,4.5-4.5s4.5,2,4.5,4.5v3c0,0.9,0.2,1.7,0.6,2.5
	c0.2,0.4,0.4,0.7,0.7,1H-291.3L-291.3,402z"/>
</svg>
