<?xml version="1.0" encoding="utf-8"?>
<!-- Generator: Adobe Illustrator 19.1.0, SVG Export Plug-In . SVG Version: 6.00 Build 0)  -->
<svg version="1.1" id="Layer_1" xmlns="http://www.w3.org/2000/svg" xmlns:xlink="http://www.w3.org/1999/xlink" x="0px" y="0px"
	 viewBox="-295 387 20 20" style="enable-background:new -295 387 20 20;" xml:space="preserve">
<style type="text/css">
	.st0{fill:#FFFFFF;}
</style>
<path class="st0" d="M-289.1,401.8c-1.2,0-2.4-0.5-3.3-1.4c-0.9-0.9-1.4-2-1.4-3.3c0-1,0.3-2,0.9-2.8c0.3-0.4,0.6-0.7,1.1-1
	c0.4-0.3,0.9-0.5,1.3-0.6c0.1,0,0.2,0,0.2,0.1s0.1,0.2,0,0.2c-0.3,0.6-0.4,1.1-0.4,1.7c0,2.1,1.7,3.8,3.8,3.8c0.6,0,1.1-0.1,1.7-0.4
	c0.1,0,0.2,0,0.2,0s0.1,0.2,0.1,0.2c-0.1,0.5-0.4,0.9-0.6,1.3c-0.3,0.4-0.6,0.8-1,1.1C-287.2,401.4-288.1,401.8-289.1,401.8
	L-289.1,401.8z M-290.8,393.4c-1.5,0.7-2.5,2.1-2.5,3.8c0,2.3,1.9,4.2,4.2,4.2c1.7,0,3.1-1,3.8-2.5c-0.5,0.2-0.9,0.3-1.4,0.3
	c-1.1,0-2.2-0.4-3-1.3c-0.8-0.8-1.3-1.9-1.3-3C-291.1,394.3-291,393.8-290.8,393.4z"/>
<path class="st0" d="M-276.5,396.2h-0.4l-0.5-1c0-0.1-0.1-0.2-0.2-0.2h-2.2c-0.2,0-0.3,0.1-0.3,0.3v0.8h-0.7l-2.1-3.7
	c-0.1-0.1-0.2-0.2-0.4-0.1l-1.9,1.1c-0.1,0.1-0.2,0.2-0.1,0.4l2.2,3.8c0.1,0.1,0.1,0.1,0.2,0.1c0,0,0.1,0,0.1,0l1.5-0.9v4.5
	c0,0.2,0.1,0.3,0.3,0.3h4.4c0.2,0,0.3-0.1,0.3-0.3v-5C-276.2,396.3-276.4,396.2-276.5,396.2z M-276.8,399.5h-0.6v-1.7h0.6V399.5z
	 M-279.6,395.6h1.8l0.3,0.6h-2.1V395.6z M-282.8,397.2l-1.9-3.4l1.4-0.8l1.9,3.4C-281.3,396.3-282.8,397.2-282.8,397.2z
	 M-280.7,401.1v-4.4h3.6c0,0,0,0,0,0c0,0,0,0,0,0h0.3v0.6h-0.8c-0.2,0-0.3,0.1-0.3,0.3v2.2c0,0.2,0.1,0.3,0.3,0.3h0.8v1.1H-280.7z"
	/>
<path class="st0" d="M-277.6,394.5c-0.4,0-0.6-0.2-0.7-0.4c-0.2-0.3-0.2-0.8,0.1-1.4c0.2-0.4,0.4-0.8,0.4-0.8c0-0.1,0.1-0.1,0.2-0.1
	c0.1,0,0.2,0.1,0.2,0.1c0,0,0.2,0.4,0.4,0.8c0.2,0.7,0.3,1.1,0.1,1.4C-277,394.3-277.2,394.5-277.6,394.5z M-277.6,392.6
	c0,0.1-0.1,0.2-0.1,0.3c-0.3,0.7-0.2,0.9-0.1,1c0,0,0.1,0.1,0.2,0.1s0.2-0.1,0.2-0.1c0-0.1,0.1-0.3-0.1-1
	C-277.6,392.8-277.6,392.7-277.6,392.6z"/>
</svg>
