<?xml version="1.0" encoding="utf-8"?>
<!-- Generator: Adobe Illustrator 19.1.0, SVG Export Plug-In . SVG Version: 6.00 Build 0)  -->
<svg version="1.1" id="Layer_1" xmlns="http://www.w3.org/2000/svg" xmlns:xlink="http://www.w3.org/1999/xlink" x="0px" y="0px"
	 viewBox="-295 387 20 20" style="enable-background:new -295 387 20 20;" xml:space="preserve">
<style type="text/css">
	.st0{fill:#FFFFFF;}
</style>
<path class="st0" d="M-280.5,405h-10c-0.3,0-0.5-0.2-0.5-0.5s0.2-0.5,0.5-0.5h10c0.3,0,0.5,0.2,0.5,0.5S-280.2,405-280.5,405z"/>
<path class="st0" d="M-278.5,390c-0.3,0-0.5,0.2-0.5,0.5v15c0,0.3-0.2,0.5-0.5,0.5h-11c-0.8,0-1.5-0.7-1.5-1.5s0.7-1.5,1.5-1.5h9
	c0.8,0,1.5-0.7,1.5-1.5v-12c0-0.8-0.7-1.5-1.5-1.5h-10c-0.8,0-1.5,0.7-1.5,1.5v15c0,1.4,1.1,2.5,2.5,2.5h11c0.8,0,1.5-0.7,1.5-1.5
	v-15C-278,390.2-278.2,390-278.5,390z M-291.5,389h10c0.3,0,0.5,0.2,0.5,0.5v12c0,0.3-0.2,0.5-0.5,0.5h-9c-0.6,0-1.1,0.2-1.5,0.5
	v-13C-292,389.2-291.8,389-291.5,389z"/>
</svg>
