<?xml version="1.0" encoding="utf-8"?>
<!-- Generator: Adobe Illustrator 19.1.0, SVG Export Plug-In . SVG Version: 6.00 Build 0)  -->
<svg version="1.1" id="Layer_1" xmlns="http://www.w3.org/2000/svg" xmlns:xlink="http://www.w3.org/1999/xlink" x="0px" y="0px"
	 viewBox="-295 387 20 20" style="enable-background:new -295 387 20 20;" xml:space="preserve">
<style type="text/css">
	.st0{fill:#FFFFFF;}
</style>
<path class="st0" d="M-294.5,406c-0.2,0-0.4-0.1-0.5-0.4s0-0.4,0.2-0.6c1.7-1,2.4-2.5,2.6-3.2c-1.8-1.4-2.9-3.4-2.9-5.4
	c0-1,0.3-2,0.8-3c0.5-0.9,1.2-1.7,2.1-2.4c1.8-1.4,4.2-2.2,6.7-2.2s4.9,0.8,6.7,2.2c0.9,0.7,1.6,1.5,2.1,2.4c0.5,0.9,0.8,1.9,0.8,3
	s-0.3,2-0.8,3c-0.5,0.9-1.2,1.7-2.1,2.4c-1.8,1.4-4.2,2.2-6.7,2.2c-1,0-2-0.1-3-0.4c-0.4,0.3-1.2,0.8-2.2,1.3
	C-292.2,405.6-293.5,406-294.5,406L-294.5,406z M-285.5,390c-4.7,0-8.5,2.9-8.5,6.5c0,1.8,1,3.6,2.8,4.8c0.2,0.1,0.2,0.3,0.2,0.5
	c-0.1,0.4-0.5,1.6-1.6,2.8c1.3-0.5,2.7-1.2,3.7-2c0.1-0.1,0.3-0.1,0.4-0.1c0.9,0.3,1.9,0.4,3,0.4c4.7,0,8.5-2.9,8.5-6.5
	S-280.8,390-285.5,390z"/>
</svg>
