<?xml version="1.0" encoding="utf-8"?>
<!-- Generator: Adobe Illustrator 19.1.0, SVG Export Plug-In . SVG Version: 6.00 Build 0)  -->
<svg version="1.1" id="Layer_1" xmlns="http://www.w3.org/2000/svg" xmlns:xlink="http://www.w3.org/1999/xlink" x="0px" y="0px"
	 viewBox="-295 387 20 20" style="enable-background:new -295 387 20 20;" xml:space="preserve">
<style type="text/css">
	.st0{fill:#FFFFFF;}
</style>
<path class="st0" d="M-276.5,389h-2.5v-0.5c0-0.3-0.2-0.5-0.5-0.5s-0.5,0.2-0.5,0.5v0.5h-10v-0.5c0-0.3-0.2-0.5-0.5-0.5
	s-0.5,0.2-0.5,0.5v0.5h-2.5c-0.8,0-1.5,0.7-1.5,1.5v14c0,0.8,0.7,1.5,1.5,1.5h17c0.8,0,1.5-0.7,1.5-1.5v-14
	C-275,389.7-275.7,389-276.5,389z M-293.5,390h2.5v1.5c0,0.3,0.2,0.5,0.5,0.5s0.5-0.2,0.5-0.5V390h10v1.5c0,0.3,0.2,0.5,0.5,0.5
	s0.5-0.2,0.5-0.5V390h2.5c0.3,0,0.5,0.2,0.5,0.5v2.5h-18v-2.5C-294,390.2-293.8,390-293.5,390z M-276.5,405h-17
	c-0.3,0-0.5-0.2-0.5-0.5V394h18v10.5C-276,404.8-276.2,405-276.5,405z"/>
<path class="st0" d="M-287.5,397h-1c-0.3,0-0.5-0.2-0.5-0.5s0.2-0.5,0.5-0.5h1c0.3,0,0.5,0.2,0.5,0.5S-287.2,397-287.5,397z"/>
<path class="st0" d="M-284.5,397h-1c-0.3,0-0.5-0.2-0.5-0.5s0.2-0.5,0.5-0.5h1c0.3,0,0.5,0.2,0.5,0.5S-284.2,397-284.5,397z"/>
<path class="st0" d="M-281.5,397h-1c-0.3,0-0.5-0.2-0.5-0.5s0.2-0.5,0.5-0.5h1c0.3,0,0.5,0.2,0.5,0.5S-281.2,397-281.5,397z"/>
<path class="st0" d="M-278.5,397h-1c-0.3,0-0.5-0.2-0.5-0.5s0.2-0.5,0.5-0.5h1c0.3,0,0.5,0.2,0.5,0.5S-278.2,397-278.5,397z"/>
<path class="st0" d="M-290.5,399h-1c-0.3,0-0.5-0.2-0.5-0.5s0.2-0.5,0.5-0.5h1c0.3,0,0.5,0.2,0.5,0.5S-290.2,399-290.5,399z"/>
<path class="st0" d="M-287.5,399h-1c-0.3,0-0.5-0.2-0.5-0.5s0.2-0.5,0.5-0.5h1c0.3,0,0.5,0.2,0.5,0.5S-287.2,399-287.5,399z"/>
<path class="st0" d="M-284.5,399h-1c-0.3,0-0.5-0.2-0.5-0.5s0.2-0.5,0.5-0.5h1c0.3,0,0.5,0.2,0.5,0.5S-284.2,399-284.5,399z"/>
<path class="st0" d="M-281.5,399h-1c-0.3,0-0.5-0.2-0.5-0.5s0.2-0.5,0.5-0.5h1c0.3,0,0.5,0.2,0.5,0.5S-281.2,399-281.5,399z"/>
<path class="st0" d="M-278.5,399h-1c-0.3,0-0.5-0.2-0.5-0.5s0.2-0.5,0.5-0.5h1c0.3,0,0.5,0.2,0.5,0.5S-278.2,399-278.5,399z"/>
<path class="st0" d="M-290.5,401h-1c-0.3,0-0.5-0.2-0.5-0.5s0.2-0.5,0.5-0.5h1c0.3,0,0.5,0.2,0.5,0.5S-290.2,401-290.5,401z"/>
<path class="st0" d="M-287.5,401h-1c-0.3,0-0.5-0.2-0.5-0.5s0.2-0.5,0.5-0.5h1c0.3,0,0.5,0.2,0.5,0.5S-287.2,401-287.5,401z"/>
<path class="st0" d="M-284.5,401h-1c-0.3,0-0.5-0.2-0.5-0.5s0.2-0.5,0.5-0.5h1c0.3,0,0.5,0.2,0.5,0.5S-284.2,401-284.5,401z"/>
<path class="st0" d="M-281.5,401h-1c-0.3,0-0.5-0.2-0.5-0.5s0.2-0.5,0.5-0.5h1c0.3,0,0.5,0.2,0.5,0.5S-281.2,401-281.5,401z"/>
<path class="st0" d="M-278.5,401h-1c-0.3,0-0.5-0.2-0.5-0.5s0.2-0.5,0.5-0.5h1c0.3,0,0.5,0.2,0.5,0.5S-278.2,401-278.5,401z"/>
<path class="st0" d="M-290.5,403h-1c-0.3,0-0.5-0.2-0.5-0.5s0.2-0.5,0.5-0.5h1c0.3,0,0.5,0.2,0.5,0.5S-290.2,403-290.5,403z"/>
<path class="st0" d="M-287.5,403h-1c-0.3,0-0.5-0.2-0.5-0.5s0.2-0.5,0.5-0.5h1c0.3,0,0.5,0.2,0.5,0.5S-287.2,403-287.5,403z"/>
<path class="st0" d="M-284.5,403h-1c-0.3,0-0.5-0.2-0.5-0.5s0.2-0.5,0.5-0.5h1c0.3,0,0.5,0.2,0.5,0.5S-284.2,403-284.5,403z"/>
<path class="st0" d="M-281.5,403h-1c-0.3,0-0.5-0.2-0.5-0.5s0.2-0.5,0.5-0.5h1c0.3,0,0.5,0.2,0.5,0.5S-281.2,403-281.5,403z"/>
<path class="st0" d="M-278.5,403h-1c-0.3,0-0.5-0.2-0.5-0.5s0.2-0.5,0.5-0.5h1c0.3,0,0.5,0.2,0.5,0.5S-278.2,403-278.5,403z"/>
</svg>
