<?xml version="1.0" encoding="utf-8"?>
<!-- Generator: Adobe Illustrator 19.1.0, SVG Export Plug-In . SVG Version: 6.00 Build 0)  -->
<svg version="1.1" id="Layer_1" xmlns="http://www.w3.org/2000/svg" xmlns:xlink="http://www.w3.org/1999/xlink" x="0px" y="0px"
	 viewBox="-295 387 20 20" style="enable-background:new -295 387 20 20;" xml:space="preserve">
<style type="text/css">
	.st0{fill:#FFFFFF;}
</style>
<path class="st0" d="M-289.5,403c-0.8,0-1.5-0.7-1.5-1.5s0.7-1.5,1.5-1.5s1.5,0.7,1.5,1.5S-288.7,403-289.5,403z M-289.5,401
	c-0.3,0-0.5,0.2-0.5,0.5s0.2,0.5,0.5,0.5s0.5-0.2,0.5-0.5S-289.2,401-289.5,401z"/>
<path class="st0" d="M-280.5,403c-0.8,0-1.5-0.7-1.5-1.5s0.7-1.5,1.5-1.5s1.5,0.7,1.5,1.5S-279.7,403-280.5,403z M-280.5,401
	c-0.3,0-0.5,0.2-0.5,0.5s0.2,0.5,0.5,0.5s0.5-0.2,0.5-0.5S-280.2,401-280.5,401z"/>
<path class="st0" d="M-278,398.9c-0.1-0.8-0.6-3.2-1-4.1c-0.3-0.6-1.1-1.1-2.3-1.4c-1-0.3-2.3-0.4-3.6-0.4s-2.6,0.1-3.6,0.4
	c-1.2,0.3-2,0.8-2.3,1.4c-0.5,0.9-0.9,3.3-1,4.1c-0.7,0.5-1,1.2-1,2.1v2.5c0,0.7,0.4,1.2,1,1.4v1.1c0,0.6,0.4,1,1,1h1
	c0.6,0,1-0.4,1-1v-1h8v1c0,0.6,0.4,1,1,1h1c0.6,0,1-0.4,1-1v-1.1c0.6-0.2,1-0.8,1-1.4V401C-277,400.1-277.3,399.4-278,398.9z
	 M-290.1,395.2c0.3-0.6,2.2-1.2,5.1-1.2s4.8,0.6,5.1,1.2c0.3,0.6,0.6,2.1,0.8,3.2c-0.1,0-0.2-0.1-0.3-0.1c-0.3-0.1-0.6-0.1-0.9-0.2
	l-2.9-2.1c-0.2-0.2-0.5-0.1-0.7,0.1c-0.2,0.2-0.1,0.5,0.1,0.7l1.6,1.1c-0.8,0-1.8,0-2.8,0c-0.1,0-0.2,0-0.3,0l-2.9-1.9
	c-0.2-0.2-0.5-0.1-0.7,0.1c-0.2,0.2-0.1,0.5,0.1,0.7l1.6,1.1c-1.3,0-2.5,0.1-3.4,0.3c-0.1,0-0.2,0.1-0.3,0.1
	C-290.7,397.3-290.3,395.8-290.1,395.2z M-290,406h-1v-1h1V406z M-280,406v-1h1v1H-280z M-278,403.5c0,0.3-0.2,0.5-0.5,0.5h-13
	c-0.3,0-0.5-0.2-0.5-0.5V401c0-0.9,0.5-1.4,1.7-1.7c1.3-0.3,3.1-0.3,5.3-0.3s4.1,0,5.3,0.3c1.2,0.3,1.7,0.8,1.7,1.7V403.5z"/>
</svg>
