<?xml version="1.0" encoding="utf-8"?>
<!-- Generator: Adobe Illustrator 16.0.0, SVG Export Plug-In . SVG Version: 6.00 Build 0)  -->
<!DOCTYPE svg PUBLIC "-//W3C//DTD SVG 1.1//EN" "http://www.w3.org/Graphics/SVG/1.1/DTD/svg11.dtd">
<svg version="1.1" id="Layer_1" xmlns="http://www.w3.org/2000/svg" xmlns:xlink="http://www.w3.org/1999/xlink" x="0px" y="0px"
	 width="20px" height="20px" viewBox="0 0 20 20" enable-background="new 0 0 20 20" xml:space="preserve">
<path fill="#FFFFFF" d="M1,10.5C1,5.813,4.813,2,9.5,2c4.687,0,8.5,3.813,8.5,8.5c0,4.687-3.813,8.5-8.5,8.5
	C4.813,19,1,15.187,1,10.5z M16.32,17.113C18.049,15.331,19,12.989,19,10.5c0-2.37-0.862-4.608-2.438-6.355l0.688-0.688l0.647,0.647
	c0.097,0.097,0.225,0.146,0.353,0.146s0.256-0.049,0.353-0.146c0.196-0.196,0.196-0.512,0-0.708l-2-2
	c-0.194-0.195-0.511-0.195-0.706,0c-0.195,0.196-0.195,0.512,0,0.708l0.646,0.646l-0.688,0.688C14.108,1.862,11.87,1,9.5,1
	S4.892,1.862,3.145,3.438L2.457,2.75l0.647-0.646c0.195-0.196,0.195-0.512,0-0.708c-0.196-0.195-0.512-0.195-0.708,0l-2,2
	c-0.195,0.196-0.195,0.512,0,0.708C0.494,4.201,0.622,4.25,0.75,4.25s0.256-0.049,0.354-0.146L1.75,3.457l0.688,0.688
	C0.862,5.892,0,8.13,0,10.5c0,2.489,0.951,4.831,2.68,6.613l-2.034,2.033c-0.195,0.195-0.195,0.512,0,0.707
	C0.744,19.951,0.872,20,1,20s0.256-0.049,0.354-0.146l2.059-2.06C5.118,19.222,7.249,20,9.5,20s4.382-0.778,6.087-2.206l2.06,2.06
	C17.744,19.951,17.872,20,18,20s0.256-0.049,0.353-0.146c0.196-0.195,0.196-0.512,0-0.707L16.32,17.113z"/>
<path fill="#FFFFFF" d="M15.129,7.25c-0.138-0.239-0.444-0.321-0.683-0.183L9.525,9.908L5.691,7.223
	C5.465,7.064,5.153,7.119,4.995,7.345C4.836,7.572,4.891,7.883,5.117,8.042l4.096,2.868c0.001,0,0.002,0.001,0.003,0.001
	c0.009,0.006,0.017,0.012,0.026,0.017c0.003,0.002,0.005,0.003,0.007,0.004c0.009,0.005,0.019,0.011,0.026,0.016
	c0.002,0.001,0.004,0.002,0.007,0.003c0.01,0.005,0.02,0.009,0.03,0.014c0.006,0.002,0.014,0.004,0.02,0.007
	c0.004,0.001,0.009,0.003,0.014,0.004c0.006,0.003,0.014,0.006,0.021,0.008c0.004,0.001,0.008,0.002,0.012,0.003
	c0.007,0.002,0.015,0.003,0.021,0.005c0.004,0,0.01,0.001,0.014,0.002c0.007,0.001,0.014,0.002,0.021,0.003
	c0.004,0.001,0.01,0.001,0.015,0.002c0.006,0.001,0.012,0.001,0.018,0.002C9.475,11,9.484,11,9.493,11c0.003,0,0.005,0,0.007,0l0,0
	c0,0,0,0,0.001,0c0.019,0,0.037-0.001,0.056-0.003c0.002,0,0.002,0,0.002,0c0.019-0.003,0.037-0.006,0.055-0.01
	c0.002-0.001,0.004-0.001,0.006-0.001c0.016-0.004,0.033-0.011,0.05-0.017c0.003-0.001,0.006-0.002,0.008-0.003
	c0.017-0.006,0.031-0.012,0.046-0.02c0.004-0.002,0.008-0.004,0.012-0.006s0.011-0.006,0.016-0.009l5.196-3
	C15.185,7.795,15.267,7.489,15.129,7.25z"/>
</svg>
