<?xml version="1.0" encoding="utf-8"?>
<!-- Generator: Adobe Illustrator 19.2.0, SVG Export Plug-In . SVG Version: 6.00 Build 0)  -->
<svg version="1.1" id="Layer_1" xmlns="http://www.w3.org/2000/svg" xmlns:xlink="http://www.w3.org/1999/xlink" x="0px" y="0px"
	 viewBox="0 0 20 20" style="enable-background:new 0 0 20 20;" xml:space="preserve">
<style type="text/css">
	.st0{fill:#F9AC08;}
</style>
<path class="st0" d="M16,16H6c-3.3,0-6-2.7-6-6s2.7-6,6-6c1.6,0,3.1,0.6,4.3,1.8c0.1-0.2,0.2-0.4,0.3-0.6C11.1,4.5,12.1,4,13,4
	c1.7,0,3,1.3,3,3c0,0.4-0.1,0.7-0.2,1c0.1,0,0.1,0,0.2,0c2.2,0,4,1.8,4,4S18.2,16,16,16L16,16z M6,5c-2.8,0-5,2.2-5,5s2.2,5,5,5h10
	c1.7,0,3-1.3,3-3s-1.3-3-3-3c-0.4,0-0.7,0.1-1,0.2c-0.2,0.1-0.5,0-0.6-0.2s-0.1-0.4,0.1-0.6C14.8,8,15,7.5,15,7c0-1.1-0.9-2-2-2
	c-0.6,0-1.2,0.3-1.6,0.8C11.2,6.1,11,6.5,11,6.9c0,0.2-0.2,0.4-0.4,0.4s-0.4,0-0.5-0.2C10,7,9.9,6.8,9.7,6.7C8.8,5.6,7.4,5,6,5L6,5z
	"/>
</svg>
