<?xml version="1.0" encoding="utf-8"?>
<!-- Generator: Adobe Illustrator 19.2.0, SVG Export Plug-In . SVG Version: 6.00 Build 0)  -->
<svg version="1.1" id="Layer_1" xmlns="http://www.w3.org/2000/svg" xmlns:xlink="http://www.w3.org/1999/xlink" x="0px" y="0px"
	 viewBox="0 0 20 20" style="enable-background:new 0 0 20 20;" xml:space="preserve">
<style type="text/css">
	.st0{fill:#F9AC08;}
</style>
<path class="st0" d="M10,14.3c-1.4,0-2.6-1.2-2.6-2.6S8.6,9.1,10,9.1s2.6,1.2,2.6,2.6S11.4,14.3,10,14.3z M10,10
	c-1,0-1.7,0.8-1.7,1.7c0,1,0.8,1.7,1.7,1.7c1,0,1.7-0.8,1.7-1.7C11.7,10.8,11,10,10,10z"/>
<path class="st0" d="M15.1,3.2l-0.2-0.6c-0.2-0.7-0.8-1.2-1.5-1.2H6.6c-0.7,0-1.3,0.5-1.5,1.2L4.9,3.2C4.4,3.3,4,3.8,4,4.4v0.9
	c0,0.6,0.4,1.1,0.9,1.2l0.8,10.9c0.1,0.7,0.7,1.3,1.4,1.3h6c0.7,0,1.3-0.6,1.4-1.3l0.8-10.9C15.7,6.3,16,5.8,16,5.3V4.4
	C16,3.8,15.6,3.3,15.1,3.2L15.1,3.2z M6.6,2.2h6.9c0.3,0,0.6,0.2,0.7,0.5l0.1,0.4H5.8l0.1-0.4C6,2.5,6.3,2.2,6.6,2.2L6.6,2.2z
	 M14.2,7.4H5.8L5.7,6.6h8.6L14.2,7.4L14.2,7.4z M13.7,15.2H6.3L5.8,8.3h8.3L13.7,15.2L13.7,15.2z M13,17.8H7c-0.3,0-0.5-0.2-0.5-0.5
	L6.4,16h7.2l-0.1,1.3C13.5,17.5,13.3,17.8,13,17.8L13,17.8z M15.2,5.3c0,0.2-0.2,0.4-0.4,0.4H5.3C5,5.7,4.8,5.5,4.8,5.3V4.4
	C4.8,4.2,5,4,5.3,4c0,0,0,0,0,0c0,0,0,0,0,0h9.5c0.2,0,0.4,0.2,0.4,0.4L15.2,5.3L15.2,5.3z"/>
</svg>
