<?xml version="1.0" encoding="utf-8"?>
<!-- Generator: Adobe Illustrator 16.0.0, SVG Export Plug-In . SVG Version: 6.00 Build 0)  -->
<!DOCTYPE svg PUBLIC "-//W3C//DTD SVG 1.1//EN" "http://www.w3.org/Graphics/SVG/1.1/DTD/svg11.dtd">
<svg version="1.1" id="Layer_1" xmlns="http://www.w3.org/2000/svg" xmlns:xlink="http://www.w3.org/1999/xlink" x="0px" y="0px"
	 width="20px" height="20px" viewBox="0 0 20 20" enable-background="new 0 0 20 20" xml:space="preserve">
<path fill="#FFFFFF" d="M10,10c-1.103,0-2,0.897-2,2s0.897,2,2,2c1.103,0,2-0.897,2-2S11.103,10,10,10z M10,15c-1.654,0-3-1.346-3-3
	s1.346-3,3-3c1.654,0,3,1.346,3,3S11.654,15,10,15z"/>
<path fill="#FFFFFF" d="M16,4.5C16,4.776,15.776,5,15.5,5h-11C4.224,5,4,4.776,4,4.5v-1C4,3.225,4.224,3.001,4.499,3H4.5
	c0.001,0,0.002,0,0.003,0H15.5C15.776,3,16,3.224,16,3.5V4.5z M13.5,19h-7c-0.29,0-0.552-0.244-0.572-0.533L5.823,17h8.354
	l-0.104,1.467C14.052,18.756,13.79,19,13.5,19z M14.249,16H5.751L5.18,8h9.64L14.249,16z M14.892,7H5.108L5.037,6h9.926L14.892,7z
	 M6,1h8c0.319,0,0.68,0.282,0.757,0.591L14.86,2H5.14l0.103-0.409C5.32,1.282,5.681,1,6,1z M15.904,2.056l-0.177-0.707
	C15.538,0.593,14.78,0,14,0H6C5.22,0,4.461,0.593,4.272,1.349L4.096,2.056C3.464,2.233,3,2.813,3,3.5v1
	c0,0.663,0.432,1.226,1.029,1.424L4.93,18.538C4.988,19.344,5.692,20,6.5,20h7c0.808,0,1.512-0.656,1.57-1.462l0.9-12.614
	C16.568,5.726,17,5.163,17,4.5v-1C17,2.813,16.536,2.233,15.904,2.056z"/>
</svg>
