<?xml version="1.0" encoding="utf-8"?>
<!-- Generator: Adobe Illustrator 19.1.0, SVG Export Plug-In . SVG Version: 6.00 Build 0)  -->
<svg version="1.1" id="Layer_1" xmlns="http://www.w3.org/2000/svg" xmlns:xlink="http://www.w3.org/1999/xlink" x="0px" y="0px"
	 viewBox="-295 387 20 20" style="enable-background:new -295 387 20 20;" xml:space="preserve">
<style type="text/css">
	.st0{fill:#FFFFFF;}
</style>
<path class="st0" d="M-285,402c-1.7,0-3-1.3-3-3s1.3-3,3-3s3,1.3,3,3S-283.3,402-285,402z M-285,397c-1.1,0-2,0.9-2,2s0.9,2,2,2
	s2-0.9,2-2S-283.9,397-285,397z"/>
<path class="st0" d="M-279.1,389.1l-0.2-0.7c-0.2-0.8-0.9-1.3-1.7-1.3h-8c-0.8,0-1.5,0.6-1.7,1.3l-0.2,0.7c-0.6,0.2-1.1,0.8-1.1,1.4
	v1c0,0.7,0.4,1.2,1,1.4l0.9,12.6c0.1,0.8,0.8,1.5,1.6,1.5h7c0.8,0,1.5-0.7,1.6-1.5l0.9-12.6c0.6-0.2,1-0.8,1-1.4v-1
	C-278,389.8-278.5,389.2-279.1,389.1L-279.1,389.1z M-289,388h8c0.3,0,0.7,0.3,0.8,0.6l0.1,0.4h-9.7l0.1-0.4
	C-289.7,388.3-289.3,388-289,388L-289,388z M-280.1,394h-9.8l-0.1-1h9.9L-280.1,394L-280.1,394z M-280.8,403h-8.5l-0.6-8h9.6
	L-280.8,403L-280.8,403z M-281.5,406h-7c-0.3,0-0.6-0.2-0.6-0.5l-0.1-1.5h8.4l-0.1,1.5C-280.9,405.8-281.2,406-281.5,406L-281.5,406
	z M-279,391.5c0,0.3-0.2,0.5-0.5,0.5h-11c-0.3,0-0.5-0.2-0.5-0.5v-1c0-0.3,0.2-0.5,0.5-0.5c0,0,0,0,0,0s0,0,0,0h11
	c0.3,0,0.5,0.2,0.5,0.5L-279,391.5L-279,391.5z"/>
</svg>
