<?xml version="1.0" encoding="utf-8"?>
<!-- Generator: Adobe Illustrator 19.1.0, SVG Export Plug-In . SVG Version: 6.00 Build 0)  -->
<svg version="1.1" id="Layer_1" xmlns="http://www.w3.org/2000/svg" xmlns:xlink="http://www.w3.org/1999/xlink" x="0px" y="0px"
	 viewBox="-295 387 20 20" style="enable-background:new -295 387 20 20;" xml:space="preserve">
<style type="text/css">
	.st0{fill:#FFFFFF;}
</style>
<path class="st0" d="M-287,387.5c0-0.3-0.2-0.5-0.5-0.5s-0.5,0.2-0.5,0.5c0,1.3,0.3,2.4,0.5,3.3c0.2,0.9,0.4,1.5,0.1,1.8
	c-0.2,0.2-0.7,0.4-1.6,0.4c0-0.2,0-0.3,0-0.5v-4c0-0.3-0.2-0.5-0.5-0.5s-0.5,0.2-0.5,0.5v4c0,0.2,0,0.3,0,0.5
	c-0.9,0-1.4-0.2-1.6-0.4c-0.2-0.3-0.1-1,0.1-1.8c0.2-0.9,0.5-2,0.5-3.3c0-0.3-0.2-0.5-0.5-0.5s-0.5,0.2-0.5,0.5c0,1.2-0.2,2.2-0.4,3
	c-0.3,1.1-0.5,2,0.1,2.7c0.4,0.5,1.1,0.7,2.3,0.8c-0.1,2.8-0.5,5.2-0.9,7.2c-0.4,2.6-0.7,4.4,0,5.3c0.3,0.4,0.8,0.6,1.4,0.6
	c0.6,0,1.1-0.2,1.4-0.6c0.8-0.9,0.5-2.6,0-5.3c-0.3-2-0.7-4.4-0.9-7.2c1.2-0.1,1.9-0.3,2.3-0.8c0.5-0.7,0.3-1.5,0.1-2.7
	C-286.8,389.7-287,388.7-287,387.5L-287,387.5z M-288.9,405.8c-0.1,0.1-0.2,0.2-0.6,0.2s-0.5-0.1-0.6-0.2c-0.5-0.5-0.1-2.4,0.2-4.5
	c0.1-0.8,0.3-1.6,0.4-2.5c0.1,0.9,0.3,1.7,0.4,2.5C-288.7,403.4-288.4,405.3-288.9,405.8L-288.9,405.8z"/>
<path class="st0" d="M-279.1,401.2c-0.4-2.3-0.9-5.2-0.9-8.7v-5c0-0.2-0.2-0.4-0.4-0.5c-0.2-0.1-0.4,0-0.6,0.2c-2,3.5-3,8.9-3.1,9.2
	c0,0.1,0,0.3,0.1,0.4c0.1,0.1,0.2,0.2,0.4,0.2h2.2c-0.2,1.5-0.4,2.9-0.6,4.2c-0.4,2.6-0.7,4.4,0,5.3c0.3,0.4,0.8,0.6,1.4,0.6
	s1.1-0.2,1.4-0.6C-278.4,405.6-278.7,403.8-279.1,401.2z M-282.9,396c0.2-1.2,0.9-3.9,1.9-6.3v2.8c0,1.2-0.1,2.4-0.2,3.5H-282.9
	L-282.9,396z M-279.9,405.8c-0.1,0.1-0.2,0.2-0.6,0.2s-0.5-0.1-0.6-0.2c-0.5-0.5-0.1-2.4,0.2-4.5c0.1-0.8,0.3-1.6,0.4-2.5
	c0.1,0.9,0.3,1.7,0.4,2.5C-279.7,403.4-279.4,405.3-279.9,405.8L-279.9,405.8z"/>
</svg>
