<?xml version="1.0" encoding="utf-8"?>
<!-- Generator: Adobe Illustrator 19.1.0, SVG Export Plug-In . SVG Version: 6.00 Build 0)  -->
<svg version="1.1" id="Layer_1" xmlns="http://www.w3.org/2000/svg" xmlns:xlink="http://www.w3.org/1999/xlink" x="0px" y="0px"
	 viewBox="-295 387 20 20" style="enable-background:new -295 387 20 20;" xml:space="preserve">
<style type="text/css">
	.st0{fill:#FFFFFF;}
</style>
<path class="st0" d="M-277.5,393h-16c-0.8,0-1.5,0.7-1.5,1.5v9c0,0.8,0.7,1.5,1.5,1.5h16c0.8,0,1.5-0.7,1.5-1.5v-9
	C-276,393.7-276.7,393-277.5,393z M-277.5,394C-277.5,394-277.4,394-277.5,394l-7.4,5c-0.3,0.2-0.8,0.2-1.1,0l-7.5-5
	c0,0,0.1,0,0.1,0H-277.5L-277.5,394z M-277.5,404h-16c-0.3,0-0.5-0.2-0.5-0.5v-8.6l7.4,4.9c0.3,0.2,0.7,0.3,1.1,0.3s0.8-0.1,1.1-0.3
	l7.4-4.9v8.6C-277,403.8-277.2,404-277.5,404z"/>
</svg>
