<?xml version="1.0" encoding="utf-8"?>
<!-- Generator: Adobe Illustrator 19.1.0, SVG Export Plug-In . SVG Version: 6.00 Build 0)  -->
<svg version="1.1" id="Layer_1" xmlns="http://www.w3.org/2000/svg" xmlns:xlink="http://www.w3.org/1999/xlink" x="0px" y="0px"
	 viewBox="-295 387 20 20" style="enable-background:new -295 387 20 20;" xml:space="preserve">
<style type="text/css">
	.st0{fill:#FFFFFF;}
</style>
<path class="st0" d="M-289.2,399.6c-1.2,0-2.2-1-2.2-2.2c0-1.2,1-2.2,2.2-2.2c1.2,0,2.2,1,2.2,2.2C-287,398.6-288,399.6-289.2,399.6
	z M-289.2,395.7c-1,0-1.7,0.8-1.7,1.7c0,1,0.8,1.7,1.7,1.7c1,0,1.7-0.8,1.7-1.7C-287.5,396.4-288.2,395.7-289.2,395.7z"/>
<path class="st0" d="M-289.2,394.6c-0.1,0-0.3-0.1-0.3-0.3v-1.5c0-0.1,0.1-0.3,0.3-0.3c0.1,0,0.3,0.1,0.3,0.3v1.5
	C-289,394.5-289.1,394.6-289.2,394.6z"/>
<path class="st0" d="M-289.2,402.1c-0.1,0-0.3-0.1-0.3-0.3v-1.5c0-0.1,0.1-0.3,0.3-0.3c0.1,0,0.3,0.1,0.3,0.3v1.5
	C-289,402-289.1,402.1-289.2,402.1z"/>
<path class="st0" d="M-292.2,397.6h-1.5c-0.1,0-0.3-0.1-0.3-0.3c0-0.1,0.1-0.3,0.3-0.3h1.5c0.1,0,0.3,0.1,0.3,0.3
	C-292,397.5-292.1,397.6-292.2,397.6z"/>
<path class="st0" d="M-284.7,397.6h-1.5c-0.1,0-0.3-0.1-0.3-0.3c0-0.1,0.1-0.3,0.3-0.3h1.5c0.1,0,0.3,0.1,0.3,0.3
	C-284.5,397.5-284.6,397.6-284.7,397.6z"/>
<path class="st0" d="M-291.7,395.1c-0.1,0-0.1,0-0.2-0.1l-1-1c-0.1-0.1-0.1-0.3,0-0.4c0.1-0.1,0.3-0.1,0.4,0l1,1
	c0.1,0.1,0.1,0.3,0,0.4C-291.6,395.1-291.6,395.1-291.7,395.1L-291.7,395.1z"/>
<path class="st0" d="M-292.7,401.1c-0.1,0-0.1,0-0.2-0.1c-0.1-0.1-0.1-0.3,0-0.4l1-1c0.1-0.1,0.3-0.1,0.4,0s0.1,0.3,0,0.4l-1,1
	C-292.6,401.1-292.6,401.1-292.7,401.1L-292.7,401.1z"/>
<path class="st0" d="M-285.7,401.1c-0.1,0-0.1,0-0.2-0.1l-1-1c-0.1-0.1-0.1-0.3,0-0.4c0.1-0.1,0.3-0.1,0.4,0l1,1
	c0.1,0.1,0.1,0.3,0,0.4C-285.6,401.1-285.6,401.1-285.7,401.1L-285.7,401.1z"/>
<path class="st0" d="M-286.7,395.1c-0.1,0-0.1,0-0.2-0.1c-0.1-0.1-0.1-0.3,0-0.4l1-1c0.1-0.1,0.3-0.1,0.4,0c0.1,0.1,0.1,0.3,0,0.4
	l-1,1C-286.6,395.1-286.6,395.1-286.7,395.1L-286.7,395.1z"/>
<path class="st0" d="M-279.5,400.1c-0.8,0-1.5-0.7-1.5-1.5s0.7-1.5,1.5-1.5s1.5,0.7,1.5,1.5S-278.7,400.1-279.5,400.1z
	 M-279.5,397.6c-0.6,0-1,0.4-1,1c0,0.6,0.4,1,1,1s1-0.4,1-1C-278.5,398.1-279,397.6-279.5,397.6z"/>
<path class="st0" d="M-276.6,393.7l-0.1-0.4c-0.1-0.4-0.5-0.7-0.9-0.7h-4c-0.4,0-0.8,0.3-0.9,0.7l-0.1,0.4c-0.3,0.1-0.5,0.4-0.5,0.7
	v0.5c0,0.3,0.2,0.6,0.5,0.7l0.5,6.3c0,0.4,0.4,0.7,0.8,0.7h3.5c0.4,0,0.8-0.3,0.8-0.7l0.5-6.3c0.3-0.1,0.5-0.4,0.5-0.7v-0.5
	C-276,394.1-276.3,393.8-276.6,393.7L-276.6,393.7z M-281.5,393.1h4c0.2,0,0.3,0.1,0.4,0.3l0.1,0.2h-4.9l0.1-0.2
	C-281.9,393.3-281.7,393.1-281.5,393.1L-281.5,393.1z M-277.1,396.1h-4.9l0-0.5h5L-277.1,396.1L-277.1,396.1z M-277.4,400.6h-4.2
	l-0.3-4h4.8L-277.4,400.6L-277.4,400.6z M-277.8,402.1h-3.5c-0.1,0-0.3-0.1-0.3-0.3l-0.1-0.7h4.2l-0.1,0.7
	C-277.5,402-277.6,402.1-277.8,402.1L-277.8,402.1z M-276.5,394.9c0,0.1-0.1,0.2-0.2,0.2h-5.5c-0.1,0-0.2-0.1-0.2-0.2v-0.5
	c0-0.1,0.1-0.2,0.2-0.2c0,0,0,0,0,0c0,0,0,0,0,0h5.5c0.1,0,0.2,0.1,0.2,0.2L-276.5,394.9L-276.5,394.9z"/>
</svg>
