<?xml version="1.0" encoding="utf-8"?>
<!-- Generator: Adobe Illustrator 19.1.0, SVG Export Plug-In . SVG Version: 6.00 Build 0)  -->
<svg version="1.1" id="Layer_1" xmlns="http://www.w3.org/2000/svg" xmlns:xlink="http://www.w3.org/1999/xlink" x="0px" y="0px"
	 viewBox="-295 387 20 20" style="enable-background:new -295 387 20 20;" xml:space="preserve">
<style type="text/css">
	.st0{fill:#FFFFFF;}
</style>
<path class="st0" d="M-275.1,399.2l-8.8-9.8c-0.3-0.3-0.6-0.5-1-0.5l0,0c-0.4,0-0.8,0.2-1,0.5l-8.8,9.8c-0.2,0.2-0.2,0.5,0,0.7
	c0.1,0.1,0.2,0.1,0.3,0.1c0.1,0,0.3-0.1,0.4-0.2l2.1-2.4v8c0,0.8,0.7,1.5,1.5,1.5h11c0.8,0,1.5-0.7,1.5-1.5v-8l2.1,2.4
	c0.2,0.2,0.5,0.2,0.7,0C-275,399.7-274.9,399.4-275.1,399.2L-275.1,399.2z M-283,406h-4v-4.5c0-0.3,0.2-0.5,0.5-0.5h3
	c0.3,0,0.5,0.2,0.5,0.5V406z M-279,405.5c0,0.3-0.2,0.5-0.5,0.5h-2.5v-4.5c0-0.8-0.7-1.5-1.5-1.5h-3c-0.8,0-1.5,0.7-1.5,1.5v4.5
	h-2.5c-0.3,0-0.5-0.2-0.5-0.5v-9.1l5.7-6.3c0.1-0.1,0.2-0.1,0.3-0.1s0.2,0,0.3,0.1l5.7,6.3V405.5z"/>
</svg>
