<?xml version="1.0" encoding="utf-8"?>
<!-- Generator: Adobe Illustrator 19.1.0, SVG Export Plug-In . SVG Version: 6.00 Build 0)  -->
<svg version="1.1" id="Layer_1" xmlns="http://www.w3.org/2000/svg" xmlns:xlink="http://www.w3.org/1999/xlink" x="0px" y="0px"
	 viewBox="-295 387 20 20" style="enable-background:new -295 387 20 20;" xml:space="preserve">
<style type="text/css">
	.st0{fill:#FFFFFF;}
</style>
<path class="st0" d="M-291.5,401h13c0.8,0,1.5-0.7,1.5-1.5v-8c0-0.8-0.7-1.5-1.5-1.5h-13c-0.8,0-1.5,0.7-1.5,1.5v8
	C-293,400.3-292.3,401-291.5,401z M-292,391.5c0-0.3,0.2-0.5,0.5-0.5h13c0.3,0,0.5,0.2,0.5,0.5v8c0,0.3-0.2,0.5-0.5,0.5h-13
	c-0.3,0-0.5-0.2-0.5-0.5V391.5z"/>
<path class="st0" d="M-275.5,402h-19c-0.3,0-0.5,0.2-0.5,0.5v1c0,0.8,0.7,1.5,1.5,1.5h17c0.8,0,1.5-0.7,1.5-1.5v-1
	C-275,402.2-275.2,402-275.5,402z M-276.5,404h-17c-0.3,0-0.5-0.2-0.5-0.5V403h18v0.5C-276,403.8-276.2,404-276.5,404z"/>
</svg>
