<?xml version="1.0" encoding="utf-8"?>
<!-- Generator: Adobe Illustrator 19.1.0, SVG Export Plug-In . SVG Version: 6.00 Build 0)  -->
<svg version="1.1" id="Layer_1" xmlns="http://www.w3.org/2000/svg" xmlns:xlink="http://www.w3.org/1999/xlink" x="0px" y="0px"
	 viewBox="-295 387 20 20" style="enable-background:new -295 387 20 20;" xml:space="preserve">
<style type="text/css">
	.st0{fill:#FFFFFF;}
</style>
<path class="st0" d="M-289.2,399.6c-1.2,0-2.2-1-2.2-2.2c0-1.2,1-2.2,2.2-2.2c1.2,0,2.2,1,2.2,2.2C-287,398.6-288,399.6-289.2,399.6
	z M-289.2,395.7c-1,0-1.7,0.8-1.7,1.7c0,1,0.8,1.7,1.7,1.7c1,0,1.7-0.8,1.7-1.7C-287.5,396.4-288.2,395.7-289.2,395.7z"/>
<path class="st0" d="M-289.2,394.6c-0.1,0-0.3-0.1-0.3-0.3v-1.5c0-0.1,0.1-0.3,0.3-0.3c0.1,0,0.3,0.1,0.3,0.3v1.5
	C-289,394.5-289.1,394.6-289.2,394.6z"/>
<path class="st0" d="M-289.2,402.1c-0.1,0-0.3-0.1-0.3-0.3v-1.5c0-0.1,0.1-0.3,0.3-0.3c0.1,0,0.3,0.1,0.3,0.3v1.5
	C-289,402-289.1,402.1-289.2,402.1z"/>
<path class="st0" d="M-292.2,397.6h-1.5c-0.1,0-0.3-0.1-0.3-0.3c0-0.1,0.1-0.3,0.3-0.3h1.5c0.1,0,0.3,0.1,0.3,0.3
	C-292,397.5-292.1,397.6-292.2,397.6z"/>
<path class="st0" d="M-284.7,397.6h-1.5c-0.1,0-0.3-0.1-0.3-0.3c0-0.1,0.1-0.3,0.3-0.3h1.5c0.1,0,0.3,0.1,0.3,0.3
	C-284.5,397.5-284.6,397.6-284.7,397.6z"/>
<path class="st0" d="M-291.7,395.1c-0.1,0-0.1,0-0.2-0.1l-1-1c-0.1-0.1-0.1-0.3,0-0.4c0.1-0.1,0.3-0.1,0.4,0l1,1
	c0.1,0.1,0.1,0.3,0,0.4C-291.6,395.1-291.6,395.1-291.7,395.1L-291.7,395.1z"/>
<path class="st0" d="M-292.7,401.1c-0.1,0-0.1,0-0.2-0.1c-0.1-0.1-0.1-0.3,0-0.4l1-1c0.1-0.1,0.3-0.1,0.4,0s0.1,0.3,0,0.4l-1,1
	C-292.6,401.1-292.6,401.1-292.7,401.1L-292.7,401.1z"/>
<path class="st0" d="M-285.7,401.1c-0.1,0-0.1,0-0.2-0.1l-1-1c-0.1-0.1-0.1-0.3,0-0.4c0.1-0.1,0.3-0.1,0.4,0l1,1
	c0.1,0.1,0.1,0.3,0,0.4C-285.6,401.1-285.6,401.1-285.7,401.1L-285.7,401.1z"/>
<path class="st0" d="M-286.7,395.1c-0.1,0-0.1,0-0.2-0.1c-0.1-0.1-0.1-0.3,0-0.4l1-1c0.1-0.1,0.3-0.1,0.4,0c0.1,0.1,0.1,0.3,0,0.4
	l-1,1C-286.6,395.1-286.6,395.1-286.7,395.1L-286.7,395.1z"/>
<path class="st0" d="M-276.6,401.6h-5.1c-0.3,0-0.6-0.3-0.6-0.6v-6.7c0-0.3,0.3-0.6,0.6-0.6h5.1c0.3,0,0.6,0.3,0.6,0.6v6.7
	C-276,401.3-276.3,401.6-276.6,401.6z M-281.8,394.1c-0.1,0-0.2,0.1-0.2,0.2v6.7c0,0.1,0.1,0.2,0.2,0.2h5.1c0.1,0,0.2-0.1,0.2-0.2
	v-6.7c0-0.1-0.1-0.2-0.2-0.2H-281.8z"/>
<path class="st0" d="M-279,400.8h-0.4c-0.1,0-0.2-0.1-0.2-0.2c0-0.1,0.1-0.2,0.2-0.2h0.4c0.1,0,0.2,0.1,0.2,0.2
	C-278.8,400.7-278.9,400.8-279,400.8z"/>
<path class="st0" d="M-277,400h-4.4c-0.1,0-0.2-0.1-0.2-0.2v-5.1c0-0.1,0.1-0.2,0.2-0.2h4.4c0.1,0,0.2,0.1,0.2,0.2v5.1
	C-276.8,399.9-276.9,400-277,400z M-281.2,399.6h4v-4.8h-4V399.6z"/>
</svg>
