<?xml version="1.0" encoding="utf-8"?>
<!-- Generator: Adobe Illustrator 16.0.0, SVG Export Plug-In . SVG Version: 6.00 Build 0)  -->
<!DOCTYPE svg PUBLIC "-//W3C//DTD SVG 1.1//EN" "http://www.w3.org/Graphics/SVG/1.1/DTD/svg11.dtd">
<svg version="1.1" id="Layer_1" xmlns="http://www.w3.org/2000/svg" xmlns:xlink="http://www.w3.org/1999/xlink" x="0px" y="0px"
	 width="512px" height="512px" viewBox="0 0 512 512" enable-background="new 0 0 512 512" xml:space="preserve">
<path fill="#FFFFFF" d="M318.8,414.8c0,8.678-7.021,15.7-15.7,15.7h-94.2c-8.678,0-15.7-7.022-15.7-15.7s7.022-15.7,15.7-15.7h94.2
	C311.778,399.1,318.8,406.122,318.8,414.8z M303.1,446.2h-94.2c-8.678,0-15.7,7.021-15.7,15.7c0,8.678,7.022,15.699,15.7,15.699
	c0,17.356,14.045,31.4,31.4,31.4h31.4c17.355,0,31.399-14.044,31.399-31.4c8.679,0,15.7-7.021,15.7-15.699
	C318.8,453.222,311.778,446.2,303.1,446.2z M256,38c69.271,0,125.6,56.361,125.6,125.6c0,44.77-23.519,85.185-62.892,108.09
	l-15.608,9.077v18.061V352h-94.2v-53.172v-18.03l-15.608-9.107C153.889,248.754,130.4,208.339,130.4,163.6
	C130.4,94.361,186.761,38,256,38 M256,6.6c-86.718,0-157,70.282-157,157c0,57.956,31.768,107.999,78.5,135.228V352
	c0,17.355,14.044,31.4,31.4,31.4h94.2c17.325,0,31.4-14.045,31.4-31.4v-53.172c46.732-27.199,78.5-77.273,78.5-135.229
	C413,76.882,342.718,6.6,256,6.6L256,6.6z"/>
</svg>
