<?xml version="1.0" encoding="utf-8"?>
<!-- Generator: Adobe Illustrator 19.2.0, SVG Export Plug-In . SVG Version: 6.00 Build 0)  -->
<svg version="1.1" id="Layer_1" xmlns="http://www.w3.org/2000/svg" xmlns:xlink="http://www.w3.org/1999/xlink" x="0px" y="0px"
	 viewBox="0 0 512 512" style="enable-background:new 0 0 512 512;" xml:space="preserve">
<style type="text/css">
	.st0{fill:#F9AC08;}
</style>
<path class="st0" d="M318.8,414.8c0,8.7-7,15.7-15.7,15.7h-94.2c-8.7,0-15.7-7-15.7-15.7s7-15.7,15.7-15.7h94.2
	C311.8,399.1,318.8,406.1,318.8,414.8z M303.1,446.2h-94.2c-8.7,0-15.7,7-15.7,15.7c0,8.7,7,15.7,15.7,15.7
	c0,17.4,14,31.4,31.4,31.4h31.4c17.4,0,31.4-14,31.4-31.4c8.7,0,15.7-7,15.7-15.7C318.8,453.2,311.8,446.2,303.1,446.2z M256,38
	c69.3,0,125.6,56.4,125.6,125.6c0,44.8-23.5,85.2-62.9,108.1l-15.6,9.1v18.1V352h-94.2v-53.2v-18l-15.6-9.1
	c-39.4-22.9-62.9-63.4-62.9-108.1C130.4,94.4,186.8,38,256,38 M256,6.6c-86.7,0-157,70.3-157,157c0,58,31.8,108,78.5,135.2V352
	c0,17.4,14,31.4,31.4,31.4h94.2c17.3,0,31.4-14,31.4-31.4v-53.2c46.7-27.2,78.5-77.3,78.5-135.2C413,76.9,342.7,6.6,256,6.6L256,6.6
	z"/>
</svg>
