<?xml version="1.0" encoding="utf-8"?>
<!-- Generator: Adobe Illustrator 19.1.0, SVG Export Plug-In . SVG Version: 6.00 Build 0)  -->
<svg version="1.1" id="Layer_1" xmlns="http://www.w3.org/2000/svg" xmlns:xlink="http://www.w3.org/1999/xlink" x="0px" y="0px"
	 viewBox="-295 387 20 20" style="enable-background:new -295 387 20 20;" xml:space="preserve">
<style type="text/css">
	.st0{fill:#FFFFFF;}
</style>
<path class="st0" d="M-286.1,399.9c0,0.1-0.1,0.2-0.2,0.2h-4.9c-0.1,0-0.2-0.1-0.2-0.2v-4c0-0.1,0.1-0.2,0.2-0.2h4.9
	c0.1,0,0.2,0.1,0.2,0.2C-286.1,396-286.1,399.9-286.1,399.9z M-290.5,394.5c0-1,0.8-1.7,1.7-1.7c1,0,1.7,0.8,1.7,1.7v0.7h-3.5V394.5
	z M-286.3,395.2h-0.2v-0.7c0-1.2-1-2.2-2.2-2.2s-2.2,1-2.2,2.2v0.7h-0.2c-0.4,0-0.7,0.3-0.7,0.7v4c0,0.4,0.3,0.7,0.7,0.7h4.9
	c0.4,0,0.7-0.3,0.7-0.7v-4C-285.6,395.5-285.9,395.2-286.3,395.2z"/>
<path class="st0" d="M-280.6,400.4c-1,0-2-0.4-2.7-1.1c-0.7-0.7-1.1-1.7-1.1-2.7c0-0.8,0.3-1.6,0.8-2.3c0.2-0.3,0.5-0.6,0.9-0.8
	c0.3-0.2,0.7-0.4,1.1-0.5c0.1,0,0.1,0,0.2,0.1s0.1,0.1,0,0.2c-0.2,0.5-0.3,0.9-0.3,1.4c0,1.7,1.4,3.1,3.1,3.1c0.5,0,0.9-0.1,1.4-0.3
	c0.1,0,0.1,0,0.2,0c0.1,0,0.1,0.1,0.1,0.2c-0.1,0.4-0.3,0.8-0.5,1.1c-0.2,0.3-0.5,0.6-0.8,0.9C-279,400.2-279.7,400.4-280.6,400.4
	L-280.6,400.4z M-281.9,393.5c-1.2,0.5-2.1,1.7-2.1,3.1c0,1.9,1.5,3.4,3.4,3.4c1.4,0,2.6-0.8,3.1-2.1c-0.4,0.1-0.8,0.2-1.2,0.2
	c-0.9,0-1.8-0.4-2.5-1c-0.7-0.7-1-1.5-1-2.5C-282.1,394.3-282.1,393.9-281.9,393.5z"/>
</svg>
