<?xml version="1.0" encoding="utf-8"?>
<!-- Generator: Adobe Illustrator 16.0.0, SVG Export Plug-In . SVG Version: 6.00 Build 0)  -->
<!DOCTYPE svg PUBLIC "-//W3C//DTD SVG 1.1//EN" "http://www.w3.org/Graphics/SVG/1.1/DTD/svg11.dtd">
<svg version="1.1" id="Layer_1" xmlns="http://www.w3.org/2000/svg" xmlns:xlink="http://www.w3.org/1999/xlink" x="0px" y="0px"
	 width="20px" height="20px" viewBox="0 0 20 20" enable-background="new 0 0 20 20" xml:space="preserve">
<path fill="#FFFFFF" d="M16.412,17.823c0,0.31-0.25,0.56-0.56,0.56H4.676c-0.308,0-0.559-0.25-0.559-0.56V8.882
	c0-0.308,0.25-0.559,0.559-0.559h11.176c0.31,0,0.56,0.25,0.56,0.559V17.823z M6.353,5.529c0-2.157,1.754-3.912,3.912-3.912
	s3.912,1.754,3.912,3.912v1.677H6.353V5.529z M15.853,7.206h-0.559V5.529c0-2.773-2.256-5.029-5.029-5.029
	c-2.773,0-5.029,2.256-5.029,5.029v1.677H4.676C3.752,7.206,3,7.958,3,8.882v8.941C3,18.748,3.752,19.5,4.676,19.5h11.176
	c0.925,0,1.677-0.752,1.677-1.677V8.882C17.529,7.958,16.777,7.206,15.853,7.206z"/>
</svg>
