<?xml version="1.0" encoding="utf-8"?>
<!-- Generator: Adobe Illustrator 19.1.0, SVG Export Plug-In . SVG Version: 6.00 Build 0)  -->
<svg version="1.1" id="Layer_1" xmlns="http://www.w3.org/2000/svg" xmlns:xlink="http://www.w3.org/1999/xlink" x="0px" y="0px"
	 viewBox="-295 387 20 20" style="enable-background:new -295 387 20 20;" xml:space="preserve">
<style type="text/css">
	.st0{fill:#FFFFFF;}
</style>
<path class="st0" d="M-280.5,395h-0.5v-1.5c0-2.5-2-4.5-4.5-4.5s-4.5,2-4.5,4.5v1.5h-0.5c-0.8,0-1.5,0.7-1.5,1.5v8
	c0,0.8,0.7,1.5,1.5,1.5h10c0.8,0,1.5-0.7,1.5-1.5v-8C-279,395.7-279.7,395-280.5,395z M-289,393.5c0-1.9,1.6-3.5,3.5-3.5
	s3.5,1.6,3.5,3.5v1.5h-7V393.5z M-280,404.5c0,0.3-0.2,0.5-0.5,0.5h-10c-0.3,0-0.5-0.2-0.5-0.5v-8c0-0.3,0.2-0.5,0.5-0.5h10
	c0.3,0,0.5,0.2,0.5,0.5V404.5z"/>
</svg>
