<?xml version="1.0" encoding="utf-8"?>
<!-- Generator: Adobe Illustrator 19.2.0, SVG Export Plug-In . SVG Version: 6.00 Build 0)  -->
<svg version="1.1" id="Layer_1" xmlns="http://www.w3.org/2000/svg" xmlns:xlink="http://www.w3.org/1999/xlink" x="0px" y="0px"
	 viewBox="0 0 20 20" style="enable-background:new 0 0 20 20;" xml:space="preserve">
<style type="text/css">
	.st0{fill:#F9AC08;}
</style>
<path class="st0" d="M10.2,20c-2.7,0-5.3-1.1-7.2-3s-3-4.5-3-7.2c0-2.3,0.7-4.4,2.1-6.1C2.7,2.8,3.5,2,4.4,1.4
	C5.3,0.8,6.3,0.3,7.4,0C7.6,0,7.8,0,7.9,0.2S8,0.6,7.9,0.7C7.3,2,7,3.2,7,4.5c0,4.7,3.8,8.5,8.5,8.5c1.3,0,2.5-0.3,3.8-0.9
	c0.2-0.1,0.4-0.1,0.5,0.1s0.2,0.3,0.2,0.5c-0.3,1.1-0.8,2-1.4,2.9c-0.6,0.9-1.3,1.7-2.2,2.3C14.6,19.3,12.5,20,10.2,20L10.2,20z
	 M6.6,1.4C3.2,2.8,1,6.1,1,9.8c0,5.1,4.2,9.2,9.2,9.2c3.7,0,6.9-2.2,8.4-5.6c-1,0.4-2.1,0.6-3.1,0.6c-2.5,0-4.9-1-6.7-2.8S6,7,6,4.5
	C6,3.4,6.2,2.4,6.6,1.4z"/>
</svg>
