<?xml version="1.0" encoding="utf-8"?>
<!-- Generator: Adobe Illustrator 19.1.0, SVG Export Plug-In . SVG Version: 6.00 Build 0)  -->
<svg version="1.1" id="Layer_1" xmlns="http://www.w3.org/2000/svg" xmlns:xlink="http://www.w3.org/1999/xlink" x="0px" y="0px"
	 viewBox="-295 387 20 20" style="enable-background:new -295 387 20 20;" xml:space="preserve">
<style type="text/css">
	.st0{fill:#FFFFFF;}
</style>
<path class="st0" d="M-284.8,407c-2.7,0-5.3-1.1-7.2-3c-1.9-1.9-3-4.5-3-7.2c0-2.3,0.7-4.4,2.1-6.1c0.7-0.8,1.4-1.6,2.3-2.2
	c0.9-0.6,1.9-1.1,2.9-1.4c0.2-0.1,0.4,0,0.5,0.2c0.1,0.2,0.2,0.4,0.1,0.5c-0.6,1.3-0.9,2.5-0.9,3.8c0,4.7,3.8,8.5,8.5,8.5
	c1.3,0,2.5-0.3,3.8-0.9c0.2-0.1,0.4-0.1,0.5,0.1c0.2,0.1,0.2,0.3,0.2,0.5c-0.3,1-0.8,2-1.4,2.9c-0.6,0.9-1.3,1.7-2.2,2.3
	C-280.4,406.3-282.5,407-284.8,407L-284.8,407z M-288.4,388.4c-3.4,1.4-5.6,4.7-5.6,8.4c0,5.1,4.1,9.2,9.2,9.2
	c3.7,0,6.9-2.2,8.4-5.6c-1,0.4-2.1,0.6-3.1,0.6c-2.5,0-4.9-1-6.7-2.8c-1.8-1.8-2.8-4.2-2.8-6.7C-289,390.4-288.8,389.4-288.4,388.4z
	"/>
</svg>
