<?xml version="1.0" encoding="utf-8"?>
<!-- Generator: Adobe Illustrator 19.1.0, SVG Export Plug-In . SVG Version: 6.00 Build 0)  -->
<svg version="1.1" id="Layer_1" xmlns="http://www.w3.org/2000/svg" xmlns:xlink="http://www.w3.org/1999/xlink" x="0px" y="0px"
	 viewBox="-295 387 20 20" style="enable-background:new -295 387 20 20;" xml:space="preserve">
<style type="text/css">
	.st0{fill:#FFFFFF;}
</style>
<path class="st0" d="M-289.2,399.7c-1.1,0-2-0.9-2-2c0-1.1,0.9-2,2-2s2,0.9,2,2C-287.2,398.8-288.1,399.7-289.2,399.7z
	 M-289.2,396.2c-0.9,0-1.5,0.7-1.5,1.5c0,0.9,0.7,1.5,1.5,1.5s1.5-0.7,1.5-1.5C-287.6,396.9-288.3,396.2-289.2,396.2z"/>
<path class="st0" d="M-289.2,395.3c-0.1,0-0.2-0.1-0.2-0.2v-1.3c0-0.1,0.1-0.2,0.2-0.2s0.2,0.1,0.2,0.2v1.3
	C-289,395.2-289.1,395.3-289.2,395.3z"/>
<path class="st0" d="M-289.2,401.9c-0.1,0-0.2-0.1-0.2-0.2v-1.3c0-0.1,0.1-0.2,0.2-0.2s0.2,0.1,0.2,0.2v1.3
	C-289,401.8-289.1,401.9-289.2,401.9z"/>
<path class="st0" d="M-291.9,398h-1.3c-0.1,0-0.2-0.1-0.2-0.2c0-0.1,0.1-0.2,0.2-0.2h1.3c0.1,0,0.2,0.1,0.2,0.2
	C-291.6,397.9-291.7,398-291.9,398z"/>
<path class="st0" d="M-285.2,398h-1.3c-0.1,0-0.2-0.1-0.2-0.2c0-0.1,0.1-0.2,0.2-0.2h1.3c0.1,0,0.2,0.1,0.2,0.2
	C-285,397.9-285.1,398-285.2,398z"/>
<path class="st0" d="M-291.4,395.7c-0.1,0-0.1,0-0.2-0.1l-0.9-0.9c-0.1-0.1-0.1-0.2,0-0.3c0.1-0.1,0.2-0.1,0.3,0l0.9,0.9
	c0.1,0.1,0.1,0.2,0,0.3C-291.3,395.7-291.4,395.7-291.4,395.7L-291.4,395.7z"/>
<path class="st0" d="M-292.3,401.1c-0.1,0-0.1,0-0.2-0.1c-0.1-0.1-0.1-0.2,0-0.3l0.9-0.9c0.1-0.1,0.2-0.1,0.3,0
	c0.1,0.1,0.1,0.2,0,0.3l-0.9,0.9C-292.2,401-292.2,401.1-292.3,401.1L-292.3,401.1z"/>
<path class="st0" d="M-286.1,401.1c-0.1,0-0.1,0-0.2-0.1l-0.9-0.9c-0.1-0.1-0.1-0.2,0-0.3c0.1-0.1,0.2-0.1,0.3,0l0.9,0.9
	c0.1,0.1,0.1,0.2,0,0.3C-286,401-286,401.1-286.1,401.1L-286.1,401.1z"/>
<path class="st0" d="M-287,395.7c-0.1,0-0.1,0-0.2-0.1c-0.1-0.1-0.1-0.2,0-0.3l0.9-0.9c0.1-0.1,0.2-0.1,0.3,0c0.1,0.1,0.1,0.2,0,0.3
	l-0.9,0.9C-286.9,395.7-286.9,395.7-287,395.7L-287,395.7z"/>
<path class="st0" d="M-276.9,394.3h-3.7c-0.3,0-0.6,0.3-0.6,0.6v1.2c0,0.1,0.1,0.2,0.2,0.2s0.2-0.1,0.2-0.2v-1.2
	c0-0.1,0.1-0.2,0.2-0.2h3.1l-1.6,0.7c-0.3,0.1-0.5,0.5-0.5,0.8v3.9h-1c-0.1,0-0.2-0.1-0.2-0.2v-1.2c0-0.1-0.1-0.2-0.2-0.2
	s-0.2,0.1-0.2,0.2v1.2c0,0.3,0.3,0.6,0.6,0.6h1v0.6c0,0.2,0.1,0.3,0.2,0.4c0.1,0,0.2,0.1,0.2,0.1c0.1,0,0.1,0,0.2,0l2.1-0.9
	c0.3-0.1,0.5-0.5,0.5-0.8v-5C-276.3,394.6-276.6,394.3-276.9,394.3z M-276.7,399.9c0,0.1-0.1,0.3-0.3,0.4l-2.1,0.9c0,0-0.1,0-0.1,0
	c0,0,0,0,0-0.1v-5c0-0.1,0.1-0.3,0.3-0.4l2.2-0.9c0,0,0,0.1,0,0.1C-276.7,394.9-276.7,399.9-276.7,399.9z"/>
<path class="st0" d="M-280.7,397.3l-1.2-1.2c-0.1-0.1-0.2-0.1-0.3,0s-0.1,0.2,0,0.3l0.9,0.9h-2.6c-0.1,0-0.2,0.1-0.2,0.2
	c0,0.1,0.1,0.2,0.2,0.2h2.6l-0.9,0.9c-0.1,0.1-0.1,0.2,0,0.3c0,0,0.1,0.1,0.1,0.1c0.1,0,0.1,0,0.1-0.1l1.2-1.2
	C-280.6,397.5-280.6,397.3-280.7,397.3L-280.7,397.3z"/>
</svg>
