<?xml version="1.0" encoding="utf-8"?>
<!-- Generator: Adobe Illustrator 19.1.0, SVG Export Plug-In . SVG Version: 6.00 Build 0)  -->
<svg version="1.1" id="Layer_1" xmlns="http://www.w3.org/2000/svg" xmlns:xlink="http://www.w3.org/1999/xlink" x="0px" y="0px"
	 viewBox="-295 387 20 20" style="enable-background:new -295 387 20 20;" xml:space="preserve">
<style type="text/css">
	.st0{fill:#FFFFFF;}
</style>
<path class="st0" d="M-276.5,407h-17c-0.8,0-1.5-0.7-1.5-1.5v-17c0-0.8,0.7-1.5,1.5-1.5h17c0.8,0,1.5,0.7,1.5,1.5v17
	C-275,406.3-275.7,407-276.5,407z M-293.5,388c-0.3,0-0.5,0.2-0.5,0.5v17c0,0.3,0.2,0.5,0.5,0.5h17c0.3,0,0.5-0.2,0.5-0.5v-17
	c0-0.3-0.2-0.5-0.5-0.5H-293.5z"/>
<path class="st0" d="M-282,396c-1.1,0-2-0.9-2-2s0.9-2,2-2s2,0.9,2,2S-280.9,396-282,396z M-282,393c-0.6,0-1,0.4-1,1s0.4,1,1,1
	s1-0.4,1-1S-281.4,393-282,393z"/>
<path class="st0" d="M-277.5,389h-15c-0.3,0-0.5,0.2-0.5,0.5v12c0,0.3,0.2,0.5,0.5,0.5h15c0.3,0,0.5-0.2,0.5-0.5v-12
	C-277,389.2-277.2,389-277.5,389z M-292,398.7l3.2-3.6c0.1-0.1,0.2-0.1,0.3-0.1c0.1,0,0.2,0,0.3,0.1l5.5,5.9h-9.3
	C-292,401-292,398.7-292,398.7z M-278,401h-3.3l-6.2-6.6c-0.3-0.3-0.7-0.5-1-0.5c-0.4,0-0.8,0.2-1,0.5l-2.5,2.8V390h14V401z"/>
</svg>
