<?xml version="1.0" encoding="utf-8"?>
<!-- Generator: Adobe Illustrator 19.1.0, SVG Export Plug-In . SVG Version: 6.00 Build 0)  -->
<svg version="1.1" id="Layer_1" xmlns="http://www.w3.org/2000/svg" xmlns:xlink="http://www.w3.org/1999/xlink" x="0px" y="0px"
	 viewBox="-295 387 20 20" style="enable-background:new -295 387 20 20;" xml:space="preserve">
<style type="text/css">
	.st0{fill:#FFFFFF;}
</style>
<path class="st0" d="M-277.5,389h-16c-0.8,0-1.5,0.7-1.5,1.5v10c0,0.8,0.7,1.5,1.5,1.5h7.5v2h-3.5c-0.3,0-0.5,0.2-0.5,0.5
	s0.2,0.5,0.5,0.5h8c0.3,0,0.5-0.2,0.5-0.5s-0.2-0.5-0.5-0.5h-3.5v-2h7.5c0.8,0,1.5-0.7,1.5-1.5v-10C-276,389.7-276.7,389-277.5,389z
	 M-277,400.5c0,0.3-0.2,0.5-0.5,0.5h-16c-0.3,0-0.5-0.2-0.5-0.5v-10c0-0.3,0.2-0.5,0.5-0.5h16c0.3,0,0.5,0.2,0.5,0.5V400.5z"/>
</svg>
