<?xml version="1.0" encoding="utf-8"?>
<!-- Generator: Adobe Illustrator 19.2.0, SVG Export Plug-In . SVG Version: 6.00 Build 0)  -->
<svg version="1.1" id="Layer_1" xmlns="http://www.w3.org/2000/svg" xmlns:xlink="http://www.w3.org/1999/xlink" x="0px" y="0px"
	 viewBox="0 0 20 20" style="enable-background:new 0 0 20 20;" xml:space="preserve">
<style type="text/css">
	.st0{fill:#F9AC08;}
</style>
<path class="st0" d="M10.5,18h-1C9.2,18,9,17.8,9,17.5S9.2,17,9.5,17h1c0.3,0,0.5,0.2,0.5,0.5S10.8,18,10.5,18z"/>
<path class="st0" d="M5.5,1C5.2,1,5,1.2,5,1.5v17C5,18.8,5.2,19,5.5,19h9c0.3,0,0.5-0.2,0.5-0.5v-17C15,1.2,14.8,1,14.5,1H5.5z
	 M14.5,20h-9C4.7,20,4,19.3,4,18.5v-17C4,0.7,4.7,0,5.5,0h9C15.3,0,16,0.7,16,1.5v17C16,19.3,15.3,20,14.5,20z"/>
<path class="st0" d="M7,15h6V3H7V15z M13.5,16h-7C6.2,16,6,15.8,6,15.5v-13C6,2.2,6.2,2,6.5,2h7C13.8,2,14,2.2,14,2.5v13
	C14,15.8,13.8,16,13.5,16z"/>
</svg>
