<?xml version="1.0" encoding="utf-8"?>
<!-- Generator: Adobe Illustrator 19.1.0, SVG Export Plug-In . SVG Version: 6.00 Build 0)  -->
<svg version="1.1" id="Layer_1" xmlns="http://www.w3.org/2000/svg" xmlns:xlink="http://www.w3.org/1999/xlink" x="0px" y="0px"
	 viewBox="-295 387 20 20" style="enable-background:new -295 387 20 20;" xml:space="preserve">
<style type="text/css">
	.st0{fill:#FFFFFF;}
</style>
<path class="st0" d="M-284.5,405h-1c-0.3,0-0.5-0.2-0.5-0.5s0.2-0.5,0.5-0.5h1c0.3,0,0.5,0.2,0.5,0.5S-284.2,405-284.5,405z"/>
<path class="st0" d="M-280.5,407h-9c-0.8,0-1.5-0.7-1.5-1.5v-17c0-0.8,0.7-1.5,1.5-1.5h9c0.8,0,1.5,0.7,1.5,1.5v17
	C-279,406.3-279.7,407-280.5,407z M-289.5,388c-0.3,0-0.5,0.2-0.5,0.5v17c0,0.3,0.2,0.5,0.5,0.5h9c0.3,0,0.5-0.2,0.5-0.5v-17
	c0-0.3-0.2-0.5-0.5-0.5H-289.5z"/>
<path class="st0" d="M-281.5,403h-7c-0.3,0-0.5-0.2-0.5-0.5v-13c0-0.3,0.2-0.5,0.5-0.5h7c0.3,0,0.5,0.2,0.5,0.5v13
	C-281,402.8-281.2,403-281.5,403z M-288,402h6v-12h-6V402z"/>
</svg>
