<?xml version="1.0" encoding="utf-8"?>
<!-- Generator: Adobe Illustrator 16.0.0, SVG Export Plug-In . SVG Version: 6.00 Build 0)  -->
<!DOCTYPE svg PUBLIC "-//W3C//DTD SVG 1.1//EN" "http://www.w3.org/Graphics/SVG/1.1/DTD/svg11.dtd">
<svg version="1.1" id="Layer_1" xmlns="http://www.w3.org/2000/svg" xmlns:xlink="http://www.w3.org/1999/xlink" x="0px" y="0px"
	 width="20px" height="20px" viewBox="0 0 20 20" enable-background="new 0 0 20 20" xml:space="preserve">
<path fill="#FFFFFF" d="M10.5,18h-1C9.224,18,9,17.776,9,17.5S9.224,17,9.5,17h1c0.276,0,0.5,0.224,0.5,0.5S10.776,18,10.5,18z"/>
<path fill="#FFFFFF" d="M5.5,1C5.224,1,5,1.224,5,1.5v17C5,18.776,5.224,19,5.5,19h9c0.276,0,0.5-0.224,0.5-0.5v-17
	C15,1.224,14.776,1,14.5,1H5.5z M14.5,20h-9C4.673,20,4,19.327,4,18.5v-17C4,0.673,4.673,0,5.5,0h9C15.327,0,16,0.673,16,1.5v17
	C16,19.327,15.327,20,14.5,20z"/>
<path fill="#FFFFFF" d="M7,15h6V3H7V15z M13.5,16h-7C6.224,16,6,15.776,6,15.5v-13C6,2.224,6.224,2,6.5,2h7
	C13.776,2,14,2.224,14,2.5v13C14,15.776,13.776,16,13.5,16z"/>
</svg>
