<?xml version="1.0" encoding="utf-8"?>
<!-- Generator: Adobe Illustrator 16.0.0, SVG Export Plug-In . SVG Version: 6.00 Build 0)  -->
<!DOCTYPE svg PUBLIC "-//W3C//DTD SVG 1.1//EN" "http://www.w3.org/Graphics/SVG/1.1/DTD/svg11.dtd">
<svg version="1.1" id="Layer_1" xmlns="http://www.w3.org/2000/svg" xmlns:xlink="http://www.w3.org/1999/xlink" x="0px" y="0px"
	 width="20px" height="20px" viewBox="0 0 20 20" enable-background="new 0 0 20 20" xml:space="preserve">
<path fill="#FFFFFF" d="M13.653,14.881c-0.146,0-0.289-0.063-0.389-0.185c-0.174-0.214-0.142-0.529,0.072-0.703
	C14.394,13.133,15,11.86,15,10.5c0-1.36-0.606-2.633-1.662-3.493c-0.215-0.174-0.247-0.489-0.073-0.703
	c0.175-0.214,0.489-0.247,0.704-0.073C15.26,7.282,16,8.838,16,10.5c0,1.663-0.74,3.218-2.031,4.269
	C13.876,14.844,13.764,14.881,13.653,14.881z"/>
<path fill="#FFFFFF" d="M11.762,12.552c-0.146,0-0.29-0.063-0.389-0.184c-0.174-0.214-0.142-0.529,0.073-0.704
	C11.798,11.378,12,10.953,12,10.5s-0.202-0.878-0.554-1.164c-0.215-0.175-0.247-0.49-0.073-0.704
	c0.175-0.214,0.489-0.246,0.704-0.072C12.663,9.037,13,9.744,13,10.5s-0.337,1.463-0.923,1.94
	C11.984,12.516,11.872,12.552,11.762,12.552z"/>
<path fill="#FFFFFF" d="M8,16.669l-4-3.4V7.731l4-3.4V16.669z M1,12.5v-4C1,8.224,1.224,8,1.5,8H3v5H1.5C1.224,13,1,12.776,1,12.5z
	 M8.15,3.207c-0.247,0-0.494,0.104-0.736,0.31L3.316,7H1.5C0.673,7,0,7.673,0,8.5v4C0,13.327,0.673,14,1.5,14h1.816l4.098,3.483
	c0.242,0.206,0.489,0.31,0.736,0.31l0,0c0.272,0,0.516-0.132,0.67-0.363C8.939,17.251,9,17.022,9,16.75V4.25
	C9,3.53,8.573,3.207,8.15,3.207z"/>
</svg>
