<?xml version="1.0" encoding="utf-8"?>
<!-- Generator: Adobe Illustrator 19.1.0, SVG Export Plug-In . SVG Version: 6.00 Build 0)  -->
<svg version="1.1" id="Layer_1" xmlns="http://www.w3.org/2000/svg" xmlns:xlink="http://www.w3.org/1999/xlink" x="0px" y="0px"
	 viewBox="-295 387 20 20" style="enable-background:new -295 387 20 20;" xml:space="preserve">
<style type="text/css">
	.st0{fill:#FFFFFF;}
</style>
<path class="st0" d="M-277,396.5v-1c0-0.1,0-0.2-0.1-0.2l-2-4c-0.1-0.2-0.3-0.3-0.4-0.3h-12c-0.2,0-0.4,0.1-0.4,0.3l-2,4
	c0,0.1-0.1,0.1-0.1,0.2v1c0,0.8,0.4,1.5,1,2v6.5h-0.5c-0.3,0-0.5,0.2-0.5,0.5s0.2,0.5,0.5,0.5h16c0.3,0,0.5-0.2,0.5-0.5
	s-0.2-0.5-0.5-0.5h-0.5v-6.5C-277.4,398-277,397.3-277,396.5z M-283.5,398c-0.8,0-1.5-0.7-1.5-1.5V396h3v0.5
	C-282,397.3-282.7,398-283.5,398z M-293,396.5V396h3v0.5c0,0.8-0.7,1.5-1.5,1.5S-293,397.3-293,396.5z M-286,392v3h-2.9l0.8-3H-286z
	 M-282.9,392l0.8,3h-2.9v-3H-282.9z M-289,396h3v0.5c0,0.8-0.7,1.5-1.5,1.5s-1.5-0.7-1.5-1.5V396z M-281,396h3v0.5
	c0,0.8-0.7,1.5-1.5,1.5s-1.5-0.7-1.5-1.5V396z M-278.3,395h-2.8l-0.8-3h2.1L-278.3,395z M-291.2,392h2.1l-0.8,3h-2.8L-291.2,392z
	 M-292,399c0.2,0,0.3,0,0.5,0c0.8,0,1.5-0.4,2-1c0.5,0.6,1.2,1,2,1s1.5-0.4,2-1c0.4,0.5,0.9,0.8,1.5,1v6h-8V399L-292,399z M-279,405
	h-4v-6c0.6-0.1,1.1-0.5,1.5-1c0.5,0.6,1.2,1,2,1c0.2,0,0.3,0,0.5-0.1V405L-279,405z"/>
<path class="st0" d="M-281,401.5c0,0.3-0.2,0.5-0.5,0.5s-0.5-0.2-0.5-0.5s0.2-0.5,0.5-0.5S-281,401.2-281,401.5z"/>
<path class="st0" d="M-290.5,402c-0.1,0-0.3,0-0.4-0.1c-0.2-0.2-0.2-0.5,0-0.7l1-1c0.2-0.2,0.5-0.2,0.7,0s0.2,0.5,0,0.7l-1,1
	C-290.2,402-290.4,402-290.5,402L-290.5,402z"/>
<path class="st0" d="M-289.5,404c-0.1,0-0.3,0-0.4-0.1c-0.2-0.2-0.2-0.5,0-0.7l3-3c0.2-0.2,0.5-0.2,0.7,0s0.2,0.5,0,0.7l-3,3
	C-289.2,404-289.4,404-289.5,404L-289.5,404z"/>
<path class="st0" d="M-286.5,404c-0.1,0-0.3,0-0.4-0.1c-0.2-0.2-0.2-0.5,0-0.7l1-1c0.2-0.2,0.5-0.2,0.7,0s0.2,0.5,0,0.7l-1,1
	C-286.2,404-286.4,404-286.5,404L-286.5,404z"/>
</svg>
