<?xml version="1.0" encoding="utf-8"?>
<!-- Generator: Adobe Illustrator 19.1.0, SVG Export Plug-In . SVG Version: 6.00 Build 0)  -->
<svg version="1.1" id="Layer_1" xmlns="http://www.w3.org/2000/svg" xmlns:xlink="http://www.w3.org/1999/xlink" x="0px" y="0px"
	 viewBox="-295 387 20 20" style="enable-background:new -295 387 20 20;" xml:space="preserve">
<style type="text/css">
	.st0{fill:#FFFFFF;}
</style>
<path class="st0" d="M-285.5,402c-2.5,0-4.5-2-4.5-4.5s2-4.5,4.5-4.5s4.5,2,4.5,4.5S-283,402-285.5,402z M-285.5,394
	c-1.9,0-3.5,1.6-3.5,3.5s1.6,3.5,3.5,3.5s3.5-1.6,3.5-3.5S-283.6,394-285.5,394z"/>
<path class="st0" d="M-285.5,392c-0.3,0-0.5-0.2-0.5-0.5v-3c0-0.3,0.2-0.5,0.5-0.5s0.5,0.2,0.5,0.5v3
	C-285,391.8-285.2,392-285.5,392z"/>
<path class="st0" d="M-285.5,407c-0.3,0-0.5-0.2-0.5-0.5v-3c0-0.3,0.2-0.5,0.5-0.5s0.5,0.2,0.5,0.5v3
	C-285,406.8-285.2,407-285.5,407z"/>
<path class="st0" d="M-291.5,398h-3c-0.3,0-0.5-0.2-0.5-0.5s0.2-0.5,0.5-0.5h3c0.3,0,0.5,0.2,0.5,0.5S-291.2,398-291.5,398z"/>
<path class="st0" d="M-276.5,398h-3c-0.3,0-0.5-0.2-0.5-0.5s0.2-0.5,0.5-0.5h3c0.3,0,0.5,0.2,0.5,0.5S-276.2,398-276.5,398z"/>
<path class="st0" d="M-290.5,393c-0.1,0-0.3,0-0.4-0.1l-2-2c-0.2-0.2-0.2-0.5,0-0.7s0.5-0.2,0.7,0l2,2c0.2,0.2,0.2,0.5,0,0.7
	C-290.2,393-290.4,393-290.5,393L-290.5,393z"/>
<path class="st0" d="M-292.5,405c-0.1,0-0.3,0-0.4-0.1c-0.2-0.2-0.2-0.5,0-0.7l2-2c0.2-0.2,0.5-0.2,0.7,0s0.2,0.5,0,0.7l-2,2
	C-292.2,405-292.4,405-292.5,405L-292.5,405z"/>
<path class="st0" d="M-278.5,405c-0.1,0-0.3,0-0.4-0.1l-2-2c-0.2-0.2-0.2-0.5,0-0.7s0.5-0.2,0.7,0l2,2c0.2,0.2,0.2,0.5,0,0.7
	C-278.2,405-278.4,405-278.5,405L-278.5,405z"/>
<path class="st0" d="M-280.5,393c-0.1,0-0.3,0-0.4-0.1c-0.2-0.2-0.2-0.5,0-0.7l2-2c0.2-0.2,0.5-0.2,0.7,0s0.2,0.5,0,0.7l-2,2
	C-280.2,393-280.4,393-280.5,393L-280.5,393z"/>
</svg>
