<?xml version="1.0" encoding="utf-8"?>
<!-- Generator: Adobe Illustrator 19.2.0, SVG Export Plug-In . SVG Version: 6.00 Build 0)  -->
<svg version="1.1" id="Layer_1" xmlns="http://www.w3.org/2000/svg" xmlns:xlink="http://www.w3.org/1999/xlink" x="0px" y="0px"
	 viewBox="0 0 20 20" style="enable-background:new 0 0 20 20;" xml:space="preserve">
<path d="M10,14c-2.2,0-4-1.8-4-4s1.8-4,4-4s4,1.8,4,4S12.2,14,10,14z M10,6.9c-1.7,0-3.1,1.4-3.1,3.1s1.4,3.1,3.1,3.1
	s3.1-1.4,3.1-3.1S11.7,6.9,10,6.9z"/>
<path d="M10,5.1c-0.2,0-0.4-0.2-0.4-0.4V2c0-0.2,0.2-0.4,0.4-0.4s0.4,0.2,0.4,0.4v2.7C10.4,4.9,10.2,5.1,10,5.1z"/>
<path d="M10,18.4c-0.2,0-0.4-0.2-0.4-0.4v-2.7c0-0.2,0.2-0.4,0.4-0.4s0.4,0.2,0.4,0.4V18C10.4,18.2,10.2,18.4,10,18.4z"/>
<path d="M4.7,10.4H2c-0.2,0-0.4-0.2-0.4-0.4S1.8,9.6,2,9.6h2.7c0.2,0,0.4,0.2,0.4,0.4S4.9,10.4,4.7,10.4z"/>
<path d="M18,10.4h-2.7c-0.2,0-0.4-0.2-0.4-0.4s0.2-0.4,0.4-0.4H18c0.2,0,0.4,0.2,0.4,0.4S18.2,10.4,18,10.4z"/>
<path d="M5.6,6C5.5,6,5.3,6,5.3,5.9L3.5,4.1c-0.2-0.2-0.2-0.5,0-0.6s0.5-0.2,0.6,0l1.8,1.8c0.2,0.2,0.2,0.5,0,0.6C5.8,6,5.7,6,5.6,6
	L5.6,6z"/>
<path d="M3.8,16.7c-0.1,0-0.2,0-0.3-0.1c-0.2-0.2-0.2-0.5,0-0.6l1.8-1.8c0.2-0.2,0.5-0.2,0.6,0c0.2,0.2,0.2,0.5,0,0.6l-1.8,1.8
	C4,16.6,3.9,16.7,3.8,16.7L3.8,16.7z"/>
<path d="M16.2,16.7c-0.1,0-0.2,0-0.3-0.1l-1.8-1.8c-0.2-0.2-0.2-0.5,0-0.6c0.2-0.2,0.5-0.2,0.6,0l1.8,1.8c0.2,0.2,0.2,0.5,0,0.6
	C16.4,16.6,16.3,16.7,16.2,16.7L16.2,16.7z"/>
<path d="M14.4,6c-0.1,0-0.2,0-0.3-0.1c-0.2-0.2-0.2-0.5,0-0.6l1.8-1.8c0.2-0.2,0.5-0.2,0.6,0c0.2,0.2,0.2,0.5,0,0.6l-1.8,1.8
	C14.7,6,14.5,6,14.4,6L14.4,6z"/>
</svg>
