<?xml version="1.0" encoding="utf-8"?>
<!-- Generator: Adobe Illustrator 16.0.0, SVG Export Plug-In . SVG Version: 6.00 Build 0)  -->
<!DOCTYPE svg PUBLIC "-//W3C//DTD SVG 1.1//EN" "http://www.w3.org/Graphics/SVG/1.1/DTD/svg11.dtd">
<svg version="1.1" id="Layer_1" xmlns="http://www.w3.org/2000/svg" xmlns:xlink="http://www.w3.org/1999/xlink" x="0px" y="0px"
	 width="500px" height="500px" viewBox="0 0 500 500" enable-background="new 0 0 500 500" xml:space="preserve">
<g id="Layer_2">
</g>
<g>
	<path fill="#FFFFFF" d="M425.65,79.624C378.876,33.007,316.685,7.335,250.533,7.337c0,0-0.004,0-0.008,0
		c-66.15,0-128.341,25.673-175.11,72.287C28.631,126.24,2.866,188.227,2.868,254.168C2.866,320.11,28.631,382.099,75.417,428.713
		C122.187,475.33,184.378,501.002,250.533,501c0,0,0.003,0,0.007,0c66.148,0,128.34-25.673,175.109-72.287
		c46.785-46.614,72.55-108.603,72.548-174.545C498.199,188.228,472.435,126.24,425.65,79.624z M415.767,418.797
		c-44.139,43.979-102.82,68.201-165.234,68.203c-62.415-0.002-121.096-24.224-165.234-68.203
		c-44.125-43.98-68.428-102.447-68.43-164.629C16.87,191.985,41.172,133.519,85.299,89.54
		c44.138-43.979,102.819-68.201,165.233-68.203c62.414,0.002,121.095,24.224,165.233,68.203
		c44.127,43.98,68.43,102.446,68.432,164.628C484.195,316.351,459.893,374.817,415.767,418.797z"/>
	<path fill="#FFFFFF" d="M421.396,265.374L257.87,109.635c-0.966-0.92-2.207-1.379-3.448-1.379c-1.247,0-2.493,0.464-3.46,1.391
		L87.5,266.356c-1.474,1.413-1.94,3.58-1.179,5.474c0.761,1.895,2.598,3.136,4.639,3.136h59.162l-0.921,94.996
		c-0.013,1.335,0.508,2.619,1.447,3.567s2.218,1.481,3.553,1.481h69.248c2.759,0,4.997-2.235,5-4.995l0.056-56.197h41.018v56.192
		c0,2.762,2.238,5,5,5h67.455c2.762,0,5-2.238,5-5v-96.016h70.971c2.045,0,3.883-1.245,4.643-3.143
		C423.349,268.954,422.876,266.784,421.396,265.374z M333.977,255.995c-2.762,0-5,2.238-5,5v96.016h-41.455v-56.192
		c0-2.762-2.238-5-5-5h-67.004c-2.759,0-4.997,2.235-5,4.995l-0.056,56.197h-43.134l0.923-94.996
		c0.013-1.335-0.508-2.619-1.447-3.567s-2.218-1.481-3.553-1.481h-39.944l131.145-125.729l130.996,124.759H333.977z"/>
</g>
</svg>
