<?xml version="1.0" encoding="utf-8"?>
<!-- Generator: Adobe Illustrator 16.0.0, SVG Export Plug-In . SVG Version: 6.00 Build 0)  -->
<!DOCTYPE svg PUBLIC "-//W3C//DTD SVG 1.1//EN" "http://www.w3.org/Graphics/SVG/1.1/DTD/svg11.dtd">
<svg version="1.1" id="Layer_1" xmlns="http://www.w3.org/2000/svg" xmlns:xlink="http://www.w3.org/1999/xlink" x="0px" y="0px"
	 width="500px" height="500px" viewBox="0 0 500 500" enable-background="new 0 0 500 500" xml:space="preserve">
<g id="Layer_2">
</g>
<g>
	<path fill="#FFFFFF" d="M250.532,14.337v4c65.37,0.002,124.513,26.394,167.352,69.078c42.833,42.691,69.311,101.622,69.313,166.753
		c-0.002,65.132-26.479,124.063-69.313,166.754C375.045,463.606,315.902,489.998,250.532,490
		c-65.37-0.002-124.513-26.394-167.352-69.078C40.348,378.23,13.87,319.3,13.868,254.168
		c0.002-65.131,26.479-124.062,69.313-166.753C126.02,44.73,185.162,18.339,250.532,18.337V14.337v-4
		c-67.545-0.002-128.734,27.294-172.999,71.412C33.263,125.859,5.866,186.844,5.868,254.168
		c-0.002,67.324,27.395,128.31,71.666,172.42c44.264,44.118,105.453,71.414,172.999,71.412
		c67.545,0.002,128.734-27.294,172.999-71.412c44.271-44.11,71.667-105.096,71.665-172.42
		c0.002-67.323-27.395-128.309-71.665-172.419c-44.265-44.117-105.453-71.414-172.999-71.412V14.337z"/>
	<polygon fill="#FFFFFF" points="100.913,265.966 100.913,269.966 155.171,269.966 154.2,370.011 223.448,370.011 223.509,308.818 
		274.521,308.818 274.521,370.011 341.977,370.011 341.977,268.995 417.947,268.995 254.422,113.256 90.96,269.966 100.913,269.966 
		100.913,265.966 103.681,268.854 254.439,124.321 397.947,260.995 333.977,260.995 333.977,362.011 282.521,362.011 
		282.521,300.818 215.517,300.818 215.456,362.011 162.278,362.011 163.25,261.966 100.913,261.966 100.913,265.966 
		103.681,268.854 	"/>
</g>
</svg>
