<?xml version="1.0" encoding="utf-8"?>
<!-- Generator: Adobe Illustrator 16.0.0, SVG Export Plug-In . SVG Version: 6.00 Build 0)  -->
<!DOCTYPE svg PUBLIC "-//W3C//DTD SVG 1.1//EN" "http://www.w3.org/Graphics/SVG/1.1/DTD/svg11.dtd">
<svg version="1.1" xmlns="http://www.w3.org/2000/svg" xmlns:xlink="http://www.w3.org/1999/xlink" x="0px" y="0px" width="100px"
	 height="100px" viewBox="0 0 100 100" enable-background="new 0 0 100 100" xml:space="preserve">
<g id="Layer_2">
</g>
<g id="Layer_1">
	<circle fill="none" stroke="#FFFFFF" stroke-width="3" stroke-miterlimit="10" cx="50.055" cy="49.662" r="47.433"/>
	<g>
		<path fill="#FFFFFF" d="M75.535,51.857c-0.002,0.856-0.37,1.705-1.095,2.293c-1.264,1.027-3.125,0.841-4.155-0.427
			c-5.084-6.241-12.605-9.83-20.646-9.83c-8.034,0.001-15.561,3.583-20.645,9.828c-1.03,1.267-2.888,1.458-4.153,0.43
			c-1.27-1.032-1.46-2.891-0.434-4.161c6.212-7.632,15.409-12.005,25.23-12.008c9.833,0.003,19.02,4.375,25.231,12.007
			C75.316,50.541,75.534,51.203,75.535,51.857z"/>
		<path fill="#FFFFFF" d="M89.296,40.675c-0.005,0.853-0.371,1.707-1.086,2.293c-1.278,1.024-3.133,0.837-4.162-0.423
			c-8.471-10.413-21.012-16.383-34.41-16.382c-13.397,0.003-25.941,5.967-34.403,16.38c-1.029,1.266-2.888,1.453-4.159,0.422
			c-1.265-1.029-1.452-2.891-0.427-4.153c9.594-11.798,23.807-18.559,38.989-18.559c15.189,0.003,29.396,6.757,38.992,18.556
			C89.076,39.36,89.294,40.017,89.296,40.675z"/>
		<path fill="#FFFFFF" d="M61.769,63.034c-0.003,0.861-0.37,1.717-1.089,2.296c-1.264,1.03-3.124,0.842-4.161-0.434
			c-1.688-2.074-4.198-3.27-6.877-3.268c-2.679-0.001-5.193,1.192-6.879,3.271c-1.033,1.271-2.896,1.46-4.164,0.435
			c-1.26-1.034-1.451-2.892-0.425-4.165c2.819-3.464,6.998-5.452,11.47-5.452c4.464,0,8.644,1.992,11.466,5.454
			C61.552,61.716,61.766,62.386,61.769,63.034z"/>
	</g>
	<circle fill="#FFFFFF" cx="49.211" cy="73.505" r="4.857"/>
</g>
</svg>
